<?xml version="1.0" encoding="utf-8"?>
<!-- Generator: Adobe Illustrator 17.0.0, SVG Export Plug-In . SVG Version: 6.00 Build 0)  -->
<!DOCTYPE svg PUBLIC "-//W3C//DTD SVG 1.1//EN" "http://www.w3.org/Graphics/SVG/1.1/DTD/svg11.dtd">
<svg version="1.1" id="Layer_1" xmlns="http://www.w3.org/2000/svg" xmlns:xlink="http://www.w3.org/1999/xlink" x="0px" y="0px"
	 width="204.914px" height="274.243px" viewBox="0 0 204.914 274.243" enable-background="new 0 0 204.914 274.243"
	 xml:space="preserve">
<g opacity="0.3">
	<path fill="#B8BABC" d="M184.786,76.792l-1.452,3.636h-0.937l0.305-5.305l0.274-0.627c-1.243-1.577-2.469-3.157-3.806-4.664
		L192.654,0l-12.831,8.152l-0.231,1.132h-0.945c0-0.097-0.043-0.236-0.057-0.349l-0.943,0.6c0.594,0.425,1,1.005,1,1.933
		l-1.248,1.874c-1.25,0-1.877-0.727-1.877-2.187V10.89l-44.589,28.329C89.06,27.101,42.492,42.768,17.082,80.995
		c-25.805,38.866-21.534,88.844,7.148,122.78l-7.898,40.822c2.1-2.746,3.248-6.553,3.342-11.58l0.633-0.684l0.901,0.855
		c0.676,2.318,0.565,3.81-0.292,4.434l2.239,0.806l1.946-7.562l0.646-0.698c0.617,0.552,1.584,1.046,2.912,1.461l-0.617,0.675
		c1.055,0.988,2.07,0.959,3.08-0.102l2.354-2.062l-1.592-1.496c-1.585,1.394-2.833,1.641-3.727,0.783l-0.617-5.288l3.953-1.004
		l0.755-3.544l0.851-0.93c4.469,1.627,7.154,2.861,8.079,3.705c0.892,0.871,0.014,3.183-2.651,6.945l-1.957,0.726
		c-1.009,0.755-1.626,2.333-1.838,4.694l-2.367,2.062c-1.525-1.424-2.76-1.6-3.772-0.53l-0.624,0.676
		c-1.162,0.929-1.271,1.976-0.343,3.11l-3.731,0.769l-0.874,0.486c0.613,0.559,1.077,1.577,1.427,3.045
		c0.913,0.841,2.63,1.599,5.157,2.25l0.741,2.399l2.232,0.814c0.094,2.651-0.504,4.664-1.781,6.014l1.598,1.49l1.49-1.59
		l0.659,0.667c0.647,0.785,0.802,1.569,0.518,2.312l36.694-23.3c42.439,13.382,90.284-2.084,116.118-41.008
		c2.805-4.227,5.18-8.599,7.293-13.053c-0.102-0.261-0.246-0.42-0.289-0.754h0.654C211.382,146.294,206.72,106.409,184.786,76.792z
		 M23.722,104.484l-2.514-0.091c-0.597-1.096-0.278-2.085,0.901-2.945l1.102-0.589l0.596,1.109L23.722,104.484z M30.158,92.607
		l1.016,1.933c-1.685-0.05-2.878,0.117-3.615,0.509L30.158,92.607z M26.649,223.745l-1.954,1.156l-0.648,0.705l-1.576,5.782
		l-0.841,0.901c-0.409-3.502,0.479-7.664,2.687-12.444l2.629-0.517C25.361,220.985,25.281,222.46,26.649,223.745z M27.375,212.456
		l2.162-0.953c0.621,0.576,0.416,1.382-0.566,2.436L27.375,212.456z M30.477,219.634l-1.488,1.6
		c-0.604-0.567-0.487-1.469,0.348-2.659l1.49-1.592C31.595,217.695,31.464,218.574,30.477,219.634z M28.484,99.491l-1.015-1.941
		l1.104-0.572c1.104-0.588,2.095-0.279,2.95,0.911L28.484,99.491z M194.951,99.207l0.689,0.637l-2.347,2.505l-0.467-0.869
		L194.951,99.207z M196.126,119.433l-0.318,0.939h-1.875v-0.939H196.126z M189.879,95.091h2.194l-0.326,2.188h-1.868V95.091z
		 M190.513,102.135v-0.487h0.457l0.1-0.106l0.103,0.106h1.526v2.18h-1.023l-0.734,0.596l-1.373-1.282L190.513,102.135z
		 M187.074,87.301h1.251l-0.321,2.178h-0.93V87.301z M187.04,106.748l1.588,1.496l-2.562,2.297l-0.473-0.865
		C186.015,109.212,186.501,108.244,187.04,106.748z M186.45,144.089v-4.37h1.25l-0.32,4.37H186.45z M186.763,152.824v2.185h-2.186
		l0.305-2.185H186.763z M184.882,150.642l-1.859-1.251c-3.328,2.706-5.521,4.058-6.554,4.058l-1.251-0.316l0.305-0.937
		c1.033,0,3.229-2.081,6.546-6.244c2.095,1.251,3.031,2.398,2.813,3.439V150.642z M173.656,64.514v-0.933
		c1.665,0,3.124-0.312,4.368-0.936c0,0.832,0.303,1.971,0.936,3.428l-0.312,0.937h-0.938
		C177.71,65.553,176.353,64.718,173.656,64.514z M176.78,84.485v0.935h-2.188v-0.935H176.78z M176.469,131.292v1.244l-3.131-0.314
		v-0.931H176.469z M175.844,144.397c1.452,0.207,2.077,1.038,1.866,2.496c-2.067-0.208-3.117,0.831-3.117,3.118l-1.255-0.309
		c0-0.623-0.299-1.666-0.93-3.121C172.617,145.741,173.751,145.022,175.844,144.397z M174.281,154.382h0.936
		c1.453,0,2.182,0.727,2.182,2.184c-1.25,2.085-2.383,3.124-3.431,3.124L174.281,154.382z M178.96,143.456l0.313-5.3h0.929
		l-0.311,5.612L178.96,143.456z M181.146,103.206l-0.085,0.607c0.392-0.607,0.784-1.366,1.177-2.419l0.626-0.679l1.595,1.493
		l-3.21,2.964l-0.347-0.323l-0.075,0.538h-1.866v-2.18H181.146z M182.099,46.229l-2.041-3.869l1.932-1.028l1.221,4.296
		L182.099,46.229z M186.763,11.78l2.18,0.309v0.945h-2.18V11.78z M181.452,14.901h0.945v2.185h-0.945V14.901z M178.96,20.2h1.242
		c1.468,0,2.086,0.729,1.866,2.19v-0.937c2.305,2.289,4.067,3.428,5.311,3.428l-0.306,3.125h-3.114
		c-1.258,0-1.892-0.833-1.892-2.495V22.39h-3.108V20.2z M179.273,36.433v2.184h-1.249l0.021-0.134l-0.852,0.451l-0.435-0.829
		l1.454-0.766l0.113-0.905H179.273z M175.218,36.433V35.18l2.182,0.313l-0.321,0.94H175.218z M178.647,31.13
		c-0.828,1.248-1.248,2.287-1.248,3.12c-1.25,0-1.978-0.734-2.182-2.187l0.305-4.366h1.258
		C176.556,29.774,177.194,30.916,178.647,31.13z M176.149,14.595v2.18c-1.251-0.204-1.868-1.043-1.868-2.496L176.149,14.595z
		 M176.149,39.552l-0.306,1.254c-0.8,0.799-1.425,1.682-1.954,2.603c0.168-0.163,0.34-0.341,0.459-0.503
		c0.973,1.837,2.934,2.439,5.885,1.818l-2.879,1.853l0.305,0.585l-6.617,3.492h3.123l2.172-0.938c0,0.84,0.307,1.247,0.945,1.247
		l-1.258,4.372l-1.859-0.312c0-0.628,0.305-0.937,0.922-0.937c0-1.446-2.075-2.285-6.232-2.502l0.304-2.18l1.883,1.25l-2.047-3.859
		c1.153-0.611,2.098-1.185,2.912-1.736l-1.047-6.757C171.891,39.139,173.656,39.552,176.149,39.552z M171.472,109.451l-0.321,0.93
		h-1.859v-1.238L171.472,109.451z M169.45,43.018l0.437,0.829l-1.903,1.017l-0.452-0.829L169.45,43.018z M165.042,129.33
		l-0.852,0.915l-1.148-1.518l0.642-0.676L165.042,129.33z M160.704,124.843l-2.296-2.138l3.399-4.529
		c0.451,0.436,1.425,0.913,2.922,1.456L160.704,124.843z M156.65,56.844c-0.58-1.108-0.291-2.085,0.916-2.958l1.596,3.037
		L156.65,56.844z M160.544,113.584l0.655-0.676l1.59,1.484l-1.083,0.698L160.544,113.584z M161.911,24.065l1.029,1.936
		c-1.277,0.674-2.28,0.362-2.948-0.927L161.911,24.065z M163.842,35.045l0.597,1.098c0.573,1.115,0.224,2.008-1.062,2.688
		l-1.117,0.575c-0.961-1.839-2.092-2.417-3.384-1.737l-1.004-1.932C160.181,36.156,162.186,35.924,163.842,35.045z M157.203,50.556
		l1.031,1.918l-1.934,1.032l-1.016-1.94L157.203,50.556z M128.404,54.823c0.299,0.548,1.062,1.319,2.297,2.314l-1.933,1.028
		l-1.461-2.76L128.404,54.823z M130.773,66.628l-1.926,1.024l-1.039-1.936l2.092-0.742L130.773,66.628z M124.352,54.497l0.435,0.817
		c0.698,1.295,0.38,2.276-0.899,2.961l-1.452-2.765L124.352,54.497z M122.04,68.775l0.808-0.426l1.017,1.93l-2.753,1.457
		C120.516,70.62,120.836,69.647,122.04,68.775z M118.365,43.182l0.458,0.832l-1.114,0.572c-1.275,0.685-2.266,0.382-2.938-0.911
		l-1.026-1.929C116.348,41.785,117.885,42.255,118.365,43.182z M114.849,78.568l-1.542-0.231c0.729-4.396,1.559-6.829,2.48-7.324
		l0.835-0.439l0.436,0.84C114.98,75.074,114.268,77.478,114.849,78.568z M115.488,63.763l1.104-0.585
		c0.684,1.296,0.38,2.277-0.899,2.956l-1.12,0.581C114,65.608,114.298,64.623,115.488,63.763z M113.143,51.957
		c1.576-0.133,2.622-0.342,3.188-0.628l0.582,1.095c-0.554,0.296-1.337,1.055-2.312,2.287c-0.304-0.555-0.828-0.628-1.553-0.236
		L113.143,51.957z M111.07,60.097l0.597,1.101l-1.925,1.022l-0.596-1.103L111.07,60.097z M96.099,64.482
		c0.284,0.545,0.413,1.664,0.362,3.337c0.488,0.915,1.803,1.864,3.962,2.837c-1.556,0.592-2.69,1.556-3.431,2.867
		c-0.377-0.732-0.849-0.953-1.394-0.662c0.61-1.969,0.087-4.512-1.562-7.643L96.099,64.482z M100.393,75.271l-1.939,1.013
		l-0.43-0.816l1.947-1.028L100.393,75.271z M82.245,68.968l0.827-0.436c0.496,1.395-0.391,3.513-2.65,6.341
		c-0.299-0.544-1.141-1.271-2.564-2.176L82.245,68.968z M71.596,79.548l0.435,0.819l-1.933,1.023l-0.436-0.831L71.596,79.548z
		 M67.084,70.991l1.445,2.753l-1.924,1.021l-0.443-0.825C65.587,72.832,65.885,71.849,67.084,70.991z M68.633,78.63l-1.918,1.023
		l-1.032-1.935C66.801,77.133,67.781,77.438,68.633,78.63z M60.072,95.158c1.104-0.597,2.094-0.286,2.967,0.911L60,97.671
		L60.072,95.158z M57.371,92.698l1.016,1.935l-0.828,0.438l-1.025-1.934L57.371,92.698z M52.953,101.034l-1.932,1.018l-0.422-0.832
		l1.919-1.014L52.953,101.034z M50.229,97.888l0.443,0.825c-1.291,0.676-2.281,0.377-2.964-0.912l-0.421-0.824
		C48.391,96.389,49.357,96.698,50.229,97.888z M49.858,106.544l-5.535,1.523l-1.032-1.929l1.104-0.585l5.273-1.374L49.858,106.544z
		 M37.4,104.312l-1.459-2.758c-0.596-1.105-0.277-2.088,0.898-2.95l1.112-0.581l2.392,7.208
		C39.063,105.898,38.068,105.604,37.4,104.312z M41.179,92.781l-0.445-0.828c1.483-0.778,2.573-1.828,3.291-3.142l1.009,1.933
		L41.179,92.781z M37.713,231.549c0.725-0.48,2.057-0.232,4.01,0.741c0.908,1.133,0.813,2.178-0.335,3.115
		c-1.388-1.597-2.86-1.525-4.415,0.139l-0.699-1.076C36.695,234.003,37.174,233.031,37.713,231.549z M34.531,242.235
		c-2.326,0.66-3.863,0.66-4.635-0.066l3.857-3.639l0.683,0.633C35.489,240.157,35.517,241.182,34.531,242.235z M42.441,247.517
		l-1.59-1.497l1.715-1.395l1.363,1.294L42.441,247.517z M44.904,242.14l-0.855,0.9l-0.51-2.193
		c-4.271-0.305-6.799-0.807-7.542-1.525l-0.712-1.075l0.874-0.48c0.754,0.728,3.769,0.692,9.036-0.071
		C45.871,240.02,45.77,241.515,44.904,242.14z M45.107,234.614l-0.479-0.871l3.864-3.662l0.677,0.639L45.107,234.614z
		 M48.217,221.72l0.639-0.704l2.268,2.136l-0.844,0.915L48.217,221.72z M50.367,239.947l-0.698-0.626l2.981-3.182l0.922,0.842
		L50.367,239.947z M57.728,222.496l-3.888,2.339l-1.148-1.51c0.416-0.472,0.857-0.472,1.315-0.044
		c0.98-1.062,0.038-3.096-2.856-6.073l1.73-1.388l0.502,2.186l2.28,2.127l2.245,0.823C57.334,221.536,57.283,222.061,57.728,222.496
		z M60.786,241.617l-1.382-1.743l0.625-0.684c1.018-0.763,2.05-0.791,3.109-0.109L60.786,241.617z M63.228,221.646l-2.282-2.113
		c-0.916-0.872-0.8-1.92,0.34-3.109l2.77-2.98c0.116,3.24,0.609,5.289,1.532,6.161L63.228,221.646z M60.174,202.983l0.853-0.9
		l1.388,1.715l-0.865,0.463L60.174,202.983z M72.715,228.409l-1.375-1.283l0.646-0.678l1.586,1.482L72.715,228.409z M70.651,205.956
		l1.489-1.592l1.591,1.482l-1.715,1.394L70.651,205.956z M73.004,223.965c-0.486-1.279-0.951-2.318-1.416-3.038
		c0.703-0.741,1.663-0.711,2.87,0.131l0.754,2.413L73.004,223.965z M81.736,214.2l-1.59-1.48l1.495-1.607l1.593,1.49L81.736,214.2z
		 M85.543,208.773l-1.381-1.278l1.498-1.59l1.589,1.48L85.543,208.773z M88.144,200.528l-0.696-0.646l1.48-1.599l0.924,0.864
		L88.144,200.528z M120.34,193.054l-2.221-0.801c-1.672,0.472-3.379,0.879-5.114,1.213l0.29,0.264l-0.64,0.696l-0.829-0.769
		c-2.7,0.441-5.463,0.74-8.281,0.797l0.051,0.044l-1.489,1.591l-0.899-0.85l0.988-0.792c-1.672-0.007-3.344-0.065-5.027-0.224
		c-31.297-2.929-54.299-30.614-51.348-61.974c2.92-31.253,30.65-54.282,61.926-51.293c31.31,2.924,54.323,30.654,51.389,61.936
		c-0.036,0.327-0.115,0.643-0.144,0.971v1.158c-0.073,0-0.104-0.079-0.16-0.083c-0.145,1.141-0.276,2.285-0.488,3.403
		c0.212,0.04,0.4,0.112,0.648,0.112l-0.625,2.188v0.93l2.817,5.303v1.254c-1.494-1.261-2.817-2.972-3.98-5.046
		c-5.115,18.144-18.859,32.28-36.179,38.265C121.097,191.905,120.895,192.472,120.34,193.054z M158.598,190.938
		c-1.75-3.306-1.193-6.902,1.706-10.773l2.201-1.173l5.48,0.994L158.598,190.938z M168.667,182.465v-2.181l9.357,2.488v2.188
		c-3.328-0.203-5.508,0.104-6.553,0.939C171.681,183.608,170.743,182.465,168.667,182.465z M168.667,178.094l0.303-3.425l5.312,1.56
		c-0.21,1.456-0.943,2.074-2.202,1.865H168.667z M176.469,192.77c0-0.843-0.319-1.976-0.946-3.442v-2.181
		c1.033,0,2.086,1.457,3.125,4.374L176.469,192.77z M182.702,194.004h-2.194v-1.234l2.194,0.306V194.004z M180.826,186.21
		l0.319-2.184c1.252,0.211,1.877,1.038,1.877,2.495L180.826,186.21z M185.202,187.767v-2.186h2.178
		C187.177,187.046,186.45,187.767,185.202,187.767z M182.702,175.602l-1.25-0.311l0.32-5.312l1.25-2.18
		c-0.831,0-1.148-0.309-0.954-0.936l-8.73,5.928l-4.047-3.429c-1.46-0.21-2.181,0.829-2.181,3.123h-1.25
		c0.205-3.954-1.67-8.118-5.621-12.488v-0.937h1.248c2.072,1.249,3.023,2.394,2.812,3.439l2.186-0.941l-3.748-6.861v-0.944
		c0.821,0,1.866-0.305,3.122-0.93v0.93c1.456,0,2.18-0.727,2.18-2.183l0.307-3.117h-2.179c-0.204,2.085-0.946,3.117-2.179,3.117
		l-4.056-3.428l2.179-3.433l-1.873-3.124v-1.251c4.365-1.867,7.163-2.802,8.428-2.802c1.249,0,2.193,2.291,2.805,6.864l-0.946,1.878
		c-0.202,1.239,0.422,2.805,1.883,4.679l-0.329,3.116c-2.061,0-3.109,0.726-3.109,2.187v0.933c-0.201,1.461,0.416,2.29,1.891,2.5
		l-2.193,3.12l-0.32,0.938c0.828,0,1.891,0.414,3.125,1.246c1.249,0,3.014-0.625,5.309-1.879l2.18,1.254l2.186-0.938
		c1.877,1.867,2.814,3.741,2.814,5.624h2.176v-2.191h0.939c1.452,0.207,2.181,1.038,2.181,2.499h-1.251
		C185.521,173.522,183.747,175.602,182.702,175.602z M190.513,185.899l-2.187-0.318c0.827-1.247,1.242-2.285,1.242-3.116h0.945
		V185.899z M192.073,177.168c-1.258,0-1.975-0.839-2.194-2.499l3.125,0.309L192.073,177.168z M189.879,115.695
		c0-1.05,0.728-1.672,2.194-1.878l2.179,1.246l-1.248,1.874C191.747,116.316,190.72,115.896,189.879,115.695z M193.933,137.845
		v-0.937c0.217-1.246,0.945-1.982,2.193-2.191v3.44L193.933,137.845z M197.681,165.298h-1.873v-0.93h1.873V165.298z M197.681,149.08
		l-2.178-0.316c0-1.039,0.725-1.661,2.178-1.87V149.08z M200.647,130.692l2.36-2.065l1.373,1.289l-0.857,0.903
		C202.521,131.881,201.576,131.844,200.647,130.692z"/>
	<path fill="#B8BABC" d="M25.406,259.765l-0.69-1.09l3.845-3.647l2.41-0.741c-0.61-0.573-0.624-1.024-0.051-1.337l-10.439-1.627
		l-0.61-5.273c-0.916-1.162-2.164-0.895-3.726,0.77l-0.211-0.189l-0.727,3.793l0.813-0.726l2.805,4.766
		c-1.149,0.914-2.106,0.886-2.877-0.133l-1.264-1.189l-0.712,3.668l3.11,4.977l-1.498,1.599c-0.9-0.943-1.7-1.664-2.447-2.26
		l-0.545,2.78c0.246,0.832-0.029,2.189-0.777,4.056l-1.213,6.284l1.976-1.263l-1.358-1.272l0.85-0.9l1.338,1.642l20.674-13.12
		l-0.538-0.479C28.871,260.164,26.162,260.477,25.406,259.765z M18.156,267.952l-1.375-1.723l1.724-1.38
		C19.26,265.853,19.164,266.891,18.156,267.952z"/>
	<path fill="#B8BABC" d="M172.765,47.268l-0.291,0.57c-0.018,0.156-0.059,0.29-0.065,0.449l-0.037-0.239l-1.329,2.605l6.312-4.077
		l-0.711-1.351L172.765,47.268z"/>
	<path fill="#B8BABC" d="M15.223,245.983l0.711,0.646l0.398-2.033C15.961,245.067,15.642,245.584,15.223,245.983z"/>
	<path fill="#B8BABC" d="M34.458,259.677c0.291-0.317,0.479-0.639,0.604-0.972l-0.981,0.624L34.458,259.677z"/>
	<polygon fill="#B8BABC" points="19.13,243.623 20.723,245.118 23.082,243.071 21.699,241.341 	"/>
	<polygon fill="#B8BABC" points="13.449,251.977 14.684,253.14 15.207,250.423 	"/>
	<polygon fill="#B8BABC" points="12.816,273.203 13.463,272.522 13.406,272.449 12.577,272.98 	"/>
	<path fill="#B8BABC" d="M102.195,194.447c0.45,0.007,0.9,0.007,1.35,0.007l-0.611-0.604L102.195,194.447z"/>
	<path fill="#B8BABC" d="M111.057,192.929l0.77,0.729c0.393-0.074,0.794-0.119,1.179-0.191l-1.061-1.018L111.057,192.929z"/>
	<path fill="#B8BABC" d="M118.111,192.247l0.008,0.006c0.973-0.282,1.946-0.58,2.905-0.906c-0.073-0.466-0.305-0.928-0.784-1.378
		L118.111,192.247z"/>
	<path fill="#B8BABC" d="M157.435,140.656v2.18c0.181,1.348,0.683,2.001,1.396,2.103c0.051-0.359,0.117-0.711,0.16-1.075v-1.028
		C158.99,141.381,158.468,140.656,157.435,140.656z"/>
	<polygon fill="#B8BABC" points="167.11,168.112 169.291,168.112 169.595,164.993 167.402,164.681 	"/>
	<path fill="#B8BABC" d="M171.907,45.059l0.464,2.989l0.103-0.21c0.174-1.607,0.652-3.08,1.416-4.429
		C173.41,43.93,172.755,44.475,171.907,45.059z"/>
	<path fill="#B8BABC" d="M176.469,8.976h-0.946v1.914l2.125-1.354C177.313,9.299,176.993,9.048,176.469,8.976z"/>
	<polygon fill="#B8BABC" points="178.677,37.083 178.214,37.337 178.046,38.482 179.112,37.911 	"/>
	<path fill="#B8BABC" d="M180.901,104.849l0.159-1.036c-0.159,0.254-0.321,0.545-0.48,0.718L180.901,104.849z"/>
	<path fill="#B8BABC" d="M186.136,26.135l-2.176-0.313v2.184C185.404,28.216,186.136,27.596,186.136,26.135z"/>
	<polygon fill="#B8BABC" points="191.675,103.827 192.654,103.035 191.172,101.647 190.97,101.647 190.513,102.135 190.513,103.827 
			"/>
	<path fill="#B8BABC" d="M196.751,182.772h1.236c0-1.441-0.713-2.182-2.18-2.182h-0.275c-0.118,0.253-0.256,0.5-0.365,0.754
		C195.465,182.214,195.945,182.772,196.751,182.772z"/>
</g>
<path fill="#004B71" d="M18.856,35.447h25.647c1.215,0,5.685,53.81,13.359,161.424h0.575L70.687,35.447h26.766l0.99,0.575
	C86.859,166.971,80.746,234.74,80.079,239.293H36.806c-1.33,0-2.368-8.679-3.128-26.051c-0.378,0-5.65-59.07-15.805-177.22
	L18.856,35.447z M19.579,164.278v0.577c-0.479,0-0.723-0.379-0.723-1.152v-0.428C19.249,163.274,19.487,163.62,19.579,164.278z
	 M23.561,50.684v0.427h0.716v-0.427H23.561z M23.561,52.538v0.561c0.296,0,0.665,0.197,1.143,0.573v-1.134H23.561z M24.703,66.343
	h-0.427c0.475,0.76,0.712,1.418,0.712,1.994h0.428v-0.428C25.416,66.865,25.18,66.343,24.703,66.343z M24.276,69.327v1.717
	c0,0.56,0.236,0.848,0.712,0.848v-2.565H24.276z M24.703,74.592h0.713v-1.133C24.94,73.459,24.703,73.837,24.703,74.592z
	 M24.988,46.13v1.417h0.855c-0.279-0.572-0.428-1.031-0.428-1.417H24.988z M24.988,74.89v0.557h1.139V74.89H24.988z M25.416,84.132
	v1h0.711v-1H25.416z M25.844,71.464v1h0.711c0-0.375,0.097-0.86,0.28-1.42c-0.184,0-0.28-0.197-0.28-0.573
	C26.074,70.471,25.844,70.806,25.844,71.464z M26.555,63.779h-0.428c0.283,0.566,0.428,1.421,0.428,2.563h0.72v-1.431
	C27.274,64.253,27.033,63.871,26.555,63.779z M27.97,80.15c-0.468,0-1.082,0.479-1.843,1.421c0,0.664,0.242,0.999,0.708,0.999h0.44
	c0-1.329,0.324-2.003,0.991-2.003V80.15H27.97z M26.127,95.809v0.991h0.428v-0.991H26.127z M26.555,50.684v0.427
	c0,0.756,0.231,1.132,0.72,1.132h0.695v-1.132C27.409,51.111,26.935,50.966,26.555,50.684z M29.404,77.014l-1.139,0.992h-0.991
	l-0.72-0.417v0.844c0.198,0,0.52,0.197,0.988,0.573c0-0.376,0.145-0.573,0.427-0.573c0.485,0,0.715,0.717,0.715,2.134h0.428
	c0-1.031,0.706-1.562,2.145-1.562v-0.573c-0.947,0-1.438-0.458-1.438-1.42H29.404z M28.685,85.703v1.566H27.97
	c0-1.045-0.371-1.566-1.135-1.566h-0.28c0,0.949,0.231,1.943,0.72,2.984c0.365-0.365,1.079-0.562,2.13-0.562v-2.421H28.685z
	 M26.835,90.684v0.994h0.708v-0.994H26.835z M26.835,102.358v1.987h0.44v-1.987H26.835z M26.835,112.028v0.576h0.708v-0.576H26.835z
	 M27.274,53.672v1.003h0.268c0.484,0,0.723-0.346,0.723-1.003H27.274z M27.543,113.458c0,0.377-0.082,0.95-0.268,1.709h0.268
	c0.484,0,0.723-0.379,0.723-1.142v-0.567H27.543z M27.543,94.805l0.427,1.995c0.384,0,0.769-0.658,1.143-1.995H27.543z
	 M27.97,82.571v1.988l1.849-0.427h0.295l0.716,0.427c0-0.573,0.228-0.854,0.704-0.854v-1.134h-0.704v1.134h-0.716
	c-0.469,0-0.709-0.509-0.709-1.561C29.022,82.433,28.542,82.571,27.97,82.571z M29.818,95.809c0,0.951-0.619,1.425-1.849,1.425
	v2.137c0.485,0.753,0.715,1.418,0.715,1.987h1.852c0-0.756,0.103-1.421,0.293-1.987c-0.76,0-1.339-0.196-1.717-0.577
	c0-0.656,0.573-0.99,1.717-0.99v-1.995H29.818z M28.266,74.592v0.298h0.847v-0.298H28.266z M28.266,105.478v1.001h0.419v-1.001
	H28.266z M29.112,116.585c-0.57,0-0.847,0.34-0.847,1.005v0.562h0.419c0.573-0.664,1.052-0.989,1.429-0.989v-0.578H29.112z
	 M28.685,65.346v0.996h0.72v-0.996H28.685z M29.818,68.9l-1.134,0.996c0,0.77,0.245,1.147,0.72,1.147h0.414
	c0.664-0.573,1.011-1.147,1.011-1.717C30.64,69.327,30.31,69.192,29.818,68.9z M35.245,83.705c0,0.281-0.142,0.427-0.434,0.427
	c0,0.377,0.135,0.905,0.434,1.571v0.433c-1.907,2.266-2.85,3.643-2.85,4.121l-1.139-0.999c-0.479,0-0.721,0.342-0.721,0.999
	c-0.284,0-0.653-0.189-1.132-0.573c-0.475,0-0.72,0.332-0.72,1.001v0.566h1.852c0.381,3.039,0.866,4.559,1.433,4.559h0.427
	c0-0.76,0.088-1.431,0.278-1.997l-0.705-1.571c0-0.562,0.237-0.902,0.705-0.99h0.704l1.434,1.567h0.434
	c0-2.082,0.474-3.134,1.417-3.134v-0.427h-2.144v-1.133c1.432-0.381,2.144-0.855,2.144-1.431H35.95v-0.99l0.712-1.571
	C36.089,84.132,35.604,83.986,35.245,83.705z M28.685,104.912h0.72v-0.994C28.93,103.918,28.685,104.261,28.685,104.912z
	 M28.685,109.05v0.844h0.428v-0.844H28.685z M28.685,127.268v0.991h1.852v-0.417L28.685,127.268z M28.685,130.254v1.144h0.428
	v-1.144H28.685z M28.685,135.378v1.57h1.134c-0.272-0.757-0.414-1.289-0.414-1.57H28.685z M29.112,120.717v1h0.706
	c0.394,0,0.622-0.329,0.718-1H29.112z M29.818,112.028c1.146,2.38,1.86,3.564,2.15,3.564h1.141v-0.425
	c-0.493,0-1.23-0.719-2.28-2.137c0-0.657,0.372-1.002,1.14-1.002v-0.991C31.483,111.038,30.778,111.372,29.818,112.028z
	 M30.113,71.464c0,0.578,1,1.417,2.996,2.562h0.269v-0.566c-1.409-1.33-2.121-2.134-2.121-2.415
	C30.778,71.325,30.401,71.464,30.113,71.464z M33.813,80.568c0,1.525-1.228,3.564-3.699,6.125v0.861h0.423l0.721-0.285
	c0,0.285,0.087,0.753,0.276,1.418c0.482,0,0.761-0.365,0.862-1.132v-0.285h-1.139v-0.576c0-0.658,0.227-0.99,0.712-0.99l0.705,0.433
	c1.433-2.102,2.138-3.431,2.138-3.992L33.813,80.568z M30.113,131.398v0.426h0.716v-1.57
	C30.341,130.254,30.113,130.634,30.113,131.398z M30.113,134.952c0.288,0.478,0.423,1.135,0.423,1.997h0.293v-1.997H30.113z
	 M30.113,139.926v0.577h0.716v-0.577H30.113z M32.674,144.918l-0.705-0.288c-0.388,0.191-1.004,0.288-1.855,0.288l1.42,4.122h0.862
	v-0.56h-0.862v-0.434l0.435-0.991c-0.29,0-0.435-0.149-0.435-0.427v-0.577l2.279-0.566v-0.855
	C33.536,144.63,33.147,144.729,32.674,144.918z M30.536,106.479v0.427h0.997v-0.427H30.536z M31.257,116.585l-0.721,0.578
	c0,0.664,0.242,0.989,0.721,0.989h0.276v-1.567H31.257z M30.829,74.025c0,0.663,0.136,1.339,0.428,1.996l-0.428,0.992h0.428
	l0.712-0.428c0-0.377-0.149-0.943-0.435-1.696c0-0.201,0.286-0.298,0.862-0.298v-0.566H30.829z M30.829,109.616
	c0,0.573,0.228,0.851,0.704,0.851v-0.851H30.829z M30.829,126.265h0.704v-0.993C31.057,125.271,30.829,125.606,30.829,126.265z
	 M31.257,141.358v0.573h0.712v-0.573H31.257z M32.674,153.737c-0.566,0.576-1.045,0.855-1.417,0.855v1.139
	c0.372-0.37,0.997-0.566,1.853-0.566v-1.428H32.674z M32.396,67.333h-0.862V68.9h1.576v-0.563
	C33.109,67.76,32.872,67.435,32.396,67.333z M31.533,119.584v0.563h0.862v-0.563H31.533z M31.533,132.818v1.001h0.435
	c0.379,0,0.616-0.343,0.705-1.001H31.533z M31.533,161.715l0.435,1.142c0.475-0.383,0.854-0.567,1.141-0.567v-0.575H31.533z
	 M31.533,173.958v0.42h1.576v-0.42H31.533z M32.674,80.15c-0.468,0-0.705,0.334-0.705,0.993v0.428h0.427
	c0.376,0,0.618-0.329,0.714-1.004V80.15H32.674z M31.969,104.345v1.706c1.897,0,2.843,0.814,2.843,2.432h0.851
	c0-0.386-0.139-0.905-0.417-1.578c0-0.577,0.358-0.854,1.14-0.854v-0.574C33.718,105.478,32.254,105.109,31.969,104.345z
	 M31.969,137.939v0.428c0.475,0.854,0.705,1.559,0.705,2.136h0.704c0-0.848,0.158-1.56,0.435-2.136L31.969,137.939z M31.969,175.518
	l0.427,0.861c0.376,0,0.618-0.285,0.714-0.861H31.969z M33.378,94.239c0,3.802-0.323,5.698-0.982,5.698
	c0,0.383,0.088,0.852,0.278,1.421l-0.278,1.001c0.189,0,0.278,0.18,0.278,0.56l0.704-0.56c0.205-2.752,0.816-4.607,1.867-5.559
	v-1.995L33.378,94.239z M32.396,108.484v0.566h0.982v-1.14C32.917,108.287,32.585,108.484,32.396,108.484z M32.674,161.289h0.436
	l0.997-1h0.412c0.773,0.575,1.144,1.052,1.144,1.426v0.575c0,0.659-0.268,0.984-0.851,0.984l0.851,2.564l-0.417,1.001l-2.136-1.557
	c0,0.943-0.237,1.798-0.714,2.558c0.189,0,0.521-0.197,0.982-0.574l1.141,1.132h0.293c0-0.558,0.375-1.23,1.139-1.983l1.418,1.425
	h0.427c0-0.376,0.102-0.869,0.292-1.425c0.284,0,0.664,0.146,1.14,0.425c0.475-0.279,0.854-0.425,1.139-0.425v-0.576
	c-0.474,0-1.946-0.329-4.415-0.984v-1.58c0.475,0,1.33-1.319,2.56-3.982v-0.562C34.62,158.73,32.674,159.584,32.674,161.289z
	 M34.106,61.784l-1.433,1.567v2.421c0.764-0.475,1.139-0.95,1.139-1.427l1.85,0.566l0.723-0.566
	C36.385,63.871,35.604,63.026,34.106,61.784z M34.106,121.718c0,0.376-0.479,0.566-1.433,0.566v0.854h1.845
	c0.381,0,0.624-0.288,0.727-0.854C34.946,122.284,34.581,122.094,34.106,121.718z M32.674,182.071v0.99h0.436v-0.99H32.674z
	 M33.378,77.589c0,0.386-0.078,0.844-0.269,1.417l0.703,0.578v-1.995H33.378z M33.109,119.584v1.133c0.65,0,1.511,0.149,2.553,0.427
	c0-0.478,0.241-1.132,0.723-1.988v-1.004C34.194,118.434,33.109,118.919,33.109,119.584z M33.813,127.268l-0.703,0.574l0.269,0.851
	c0.487,0,0.729-0.292,0.729-0.851v-0.574H33.813z M33.109,141.358v1.574h0.269c0-0.296,0.158-0.814,0.435-1.574H33.109z
	 M33.109,148.046v0.434h0.997v-0.434H33.109z M34.519,168.827c-0.936,0.854-1.409,1.528-1.409,1.998v0.562
	c0.269,0,1.361,1.201,3.275,3.564c0.85-1.329,1.79-1.986,2.842-1.986v-1.001l-3.276-1.559c-0.556,1.043-0.943,1.559-1.139,1.559
	c0-0.854,0.135-1.519,0.434-1.994C35.245,169.318,35.007,168.925,34.519,168.827z M33.378,113.031
	c0.3,0.578,0.435,1.283,0.435,2.137h0.999v-2.137H33.378z M36.662,126.693c0,1.336-0.237,2.001-0.712,2.001
	c0,2.09-0.847,3.131-2.572,3.131c0,0.376,0.774,1.231,2.284,2.56c0.376,0,0.623-0.335,0.723-1c0.85,1.994,1.41,2.994,1.702,2.994
	c1.716,0,2.937-1.655,3.699-4.98h-0.714c-0.476,0-0.944,1.183-1.426,3.554c-1.512,0-2.366-1.185-2.557-3.554
	c0.19-1.996,0.651-3.556,1.421-4.705H36.662z M33.378,163.274v1.003h0.435c0.382,0,0.625-0.33,0.706-1.003H33.378z M39.932,174.951
	c0.38,0,0.762,0.665,1.141,1.995l0.714-0.566h1.133l-0.705,3.27h-1.142v-0.56l0.277-1.15h-0.277l-0.707,0.578l0.279,3.126
	c0,0.665-0.228,0.99-0.713,0.99c-0.475-0.177-0.942-1.082-1.421-2.699l1.136-0.845l-0.42-1.15c-0.197,0-0.289,0.197-0.289,0.578
	c-0.287,0-0.654-0.198-1.143-0.578l-1.41,1.15c-0.781,0-1.14-0.386-1.14-1.15c-1.051,0.854-1.662,1.71-1.867,2.572
	c0.3,0,0.435,0.19,0.435,0.566l0.706-0.566l1.144,1.132c0-1.132,0.241-1.709,0.723-1.709h0.705c0.381,0,0.617,0.386,0.705,1.143
	v0.566l-0.427,0.99c0.478,1.332,1.569,1.998,3.276,1.998v0.994l-0.713,1.565v0.428l1.141-0.995h0.277
	c0.487,0,0.767,0.336,0.864,0.995v1.139c-0.188,0-1.19,0.281-2.987,0.855c0-0.468-0.237-0.753-0.716-0.855h-0.424v0.855h1.14v1.133
	l-0.716,1.577v0.282c0.946,0.196,1.421,0.752,1.421,1.706c-0.081,0.762-0.942,1.577-2.563,2.42
	c-1.037-0.663-1.765-0.993-2.123-0.993v0.566c0,0.478,0.844,1.139,2.55,1.987l3.555-3.982v-0.573c-0.656,0-0.984-0.381-0.984-1.133
	v-0.282l0.279-1.149c0.664,0,1.519,0.671,2.564,2.004h1.854c0-0.376,0.624-1.756,1.849-4.138c0-0.281-0.489-0.566-1.421-0.854
	c0,0.387-0.15,0.572-0.428,0.572h-0.438c-0.469,0-0.706-0.375-0.706-1.139c0-0.285,0.855-1.283,2.558-2.988h0.712l0.712,0.566
	l-0.712,1.427v0.566c1.052-1.044,1.913-1.565,2.57-1.565l-0.996-2.137h-1.145c-0.272,0-0.659-0.146-1.141-0.427
	c0,1.432-0.842,2.136-2.558,2.136l-0.285-1.132v-0.577l0.285-3.554c-0.19,0-0.285-0.088-0.285-0.285
	c0.476-0.381,0.804-0.56,0.991-0.56c-0.469-2.004-0.937-2.995-1.417-2.995v-1.143c0.762,0,1.139-0.329,1.139-0.993
	c-0.944,0-1.429-0.516-1.429-1.567c0-0.57,0.242-0.895,0.716-1.004l-0.426-0.983C41.023,171.732,39.932,173.246,39.932,174.951z
	 M34.519,69.897c-0.468,0-0.706,0.386-0.706,1.147c0.478,0.757,0.706,1.56,0.706,2.415l0.727-0.578c0-0.278-0.142-0.752-0.434-1.417
	l0.434-0.993v-0.574H34.519z M33.813,76.585v0.428h0.999v-0.428H33.813z M34.106,134.952h-0.294c0.197,0.571,0.294,1.05,0.294,1.426
	h0.705v-0.573C34.812,135.328,34.581,135.049,34.106,134.952z M33.813,153.737v0.855c0.382,0,0.625-0.279,0.706-0.855H33.813z
	 M34.519,185.626c-0.468,0-0.706,0.346-0.706,0.999h2.138v-0.999H34.519z M34.519,188.758h-0.706v0.855h1.433
	C35.245,189.145,35.007,188.859,34.519,188.758z M37.09,99.937c0,0.946-1.001,1.943-2.983,2.981l0.412,1
	c2.09-2.086,3.276-3.13,3.568-3.13v-0.434C37.897,100.354,37.578,100.214,37.09,99.937z M34.519,196.731h-0.412
	c0,0.763,0.227,1.141,0.705,1.141h0.434C35.245,197.201,35.007,196.824,34.519,196.731z M38.087,212.964
	c0-2.38-0.807-3.564-2.425-3.564c-0.476,0.376-0.986,0.573-1.556,0.573l0.412,1.133c0.21,0,0.585-0.186,1.144-0.562
	c0.376,0.377,0.946,0.562,1.706,0.562v0.292l-0.278,1.14c0.488,0,0.705,0.983,0.705,2.987h0.716
	C38.231,215.046,38.087,214.195,38.087,212.964z M39.227,53.099c0,0.763-0.237,1.15-0.716,1.15h-0.716v-0.577l0.292-1.134h-1.425
	c0,0.757,0.237,1.134,0.706,1.134c0,0.475-0.469,1.003-1.418,1.559c-0.475,0-0.705-0.324-0.705-0.982v-0.577h1.14v-0.573
	c-0.861,0-1.485-0.18-1.866-0.561c0.381-0.949,0.773-1.428,1.144-1.428c0.376,0,0.623,0.377,0.723,1.132l0.983-1.132h0.427
	L39.227,53.099z M35.245,109.616v0.851c0.278,0,0.417-0.187,0.417-0.573c0.288,0.099,0.763,1,1.428,2.711l-2.571,3.98
	c0.21,0,0.585,0.198,1.144,0.578c0.206-0.658,0.288-1.34,0.288-1.996c2.469,0,3.791-1.186,3.981-3.568l-1.845,0.429
	c-0.664,0-0.997-0.327-0.997-0.991v-0.57l0.278-0.851H35.245z M34.519,144.63l0.293,0.855l-0.293,1.143h1.144
	c-0.268-0.665-0.417-1.329-0.417-1.998H34.519z M34.519,148.046c0.488,0.855,0.727,1.709,0.727,2.563
	c0.753-0.468,1.14-0.997,1.14-1.569v-0.56c-0.781,0-1.14-0.285-1.14-0.852L34.519,148.046z M35.245,155.731
	c-0.475,0-0.727,0.34-0.727,1.003h0.293c0.48,0,0.753-0.339,0.851-1.003H35.245z M35.95,76.022h-0.705
	c0.278,0.665,0.417,1.198,0.417,1.567h0.288l0.712-0.576C36.662,76.45,36.425,76.118,35.95,76.022z M35.95,205.408h-0.288
	c0,0.774-0.139,1.431-0.417,1.999h0.705c0.475,0,0.712-0.329,0.712-0.995C36.662,205.835,36.425,205.51,35.95,205.408z
	 M35.662,122.284v0.288h0.723v-0.288H35.662z M35.662,189.039v1.144h0.723v-1.144H35.662z M37.09,106.906
	c-0.481,0-0.705,0.339-0.705,1.004h0.277c0.479,0,0.706-0.331,0.706-1.004H37.09z M36.662,91.25v0.99
	c0,0.676,0.237,1.005,0.706,1.005h0.427v-1.567C37.517,91.678,37.141,91.536,36.662,91.25z M38.087,73.459
	c-0.664,0.566-0.997,1.05-0.997,1.431h0.278l1.858-0.298v-0.566C39.029,74.025,38.65,73.837,38.087,73.459z M38.511,93.812h-0.716
	c0,1.339-0.217,1.997-0.705,1.997c0.576,1.33,1.045,1.995,1.421,1.995h0.716c0.475,0,0.705-0.339,0.705-1.004
	c-0.19,0-0.51-0.14-0.994-0.428c0-0.366,0.092-0.896,0.289-1.567C39.227,94.239,38.989,93.91,38.511,93.812z M37.09,118.729v0.427
	h0.705v-1.566C37.327,117.59,37.09,117.966,37.09,118.729z M37.09,124.278v0.994h0.278v-0.994H37.09z M37.368,187.619h0.719v-0.995
	C37.607,186.624,37.368,186.96,37.368,187.619z M38.938,57.797c0.655,0,0.994,0.481,0.994,1.424l-0.994,1.004
	c-0.763-0.475-1.143-0.953-1.143-1.428v-2.56c0-0.57,0.241-0.906,0.716-1.005h0.716L38.938,57.797z M37.795,71.892v0.989h0.292
	v-0.989H37.795z M37.795,103.351v2.7l2.85,0.854l1.569-0.427v-1.567c-1.224-0.37-1.849-1.224-1.849-2.554
	C38.65,102.358,37.795,102.687,37.795,103.351z M39.227,126.265v0.428c0,0.773,0.23,1.15,0.705,1.15
	c0,0.478-0.705,1.279-2.137,2.412c0,0.767,0.241,1.144,0.716,1.144h0.427c0.484,0,1.19-1.371,2.135-4.129v-0.576
	C40.312,126.693,39.701,126.563,39.227,126.265z M39.932,62.779v1c-0.19,0-0.51,0.189-0.994,0.566c-0.566,0-0.851-0.33-0.851-0.994
	v-0.573c0-0.566,0.284-0.896,0.851-0.995h0.289C39.701,61.784,39.932,62.121,39.932,62.779z M38.087,201.864h1.845l-0.705-1.579
	C38.46,200.864,38.087,201.378,38.087,201.864z M38.087,205.835c0,0.767,0.284,1.153,0.851,1.153v-1.153H38.087z M38.087,222.209
	v0.428h0.851v-0.428H38.087z M38.511,76.022c0,0.665,0.24,0.992,0.716,0.992h0.705v-0.992H38.511z M41.072,114.598
	c-0.558,0.666-1.426,0.995-2.562,0.995v0.993l2.839-0.993v-0.995H41.072z M40.645,117.59h-0.998c0,1.04-0.372,1.566-1.136,1.566
	v0.428h0.427c1.329-0.299,2.277-0.428,2.849-0.428C41.41,118.105,41.023,117.59,40.645,117.59z M38.511,139.926v1.15
	c0.376,0,0.633-0.376,0.716-1.15H38.511z M39.227,175.518c-0.476,0-0.716,0.284-0.716,0.861h1.136v-0.861H39.227z M39.932,158.73
	h-0.705l1.139,2.984l-1.139,1.142l0.42,0.845c0.481,0,0.95-0.137,1.426-0.428c0.488,0,0.714,0.854,0.714,2.564h1.849l2.571-2.136
	c0.366,0,0.604,0.386,0.706,1.152c1.228-0.766,2.082-1.152,2.561-1.152c0.375,0.386,0.951,0.576,1.705,0.576v0.577
	c0,0.753-0.942,1.269-2.849,1.56v0.852l2.57,0.574c0.371-1.716,0.763-2.558,1.14-2.558l-0.861-1.58v-1.412l0.861-1.573
	c-0.292,0-0.654-0.135-1.14-0.428c-0.196,0.95-0.901,1.426-2.136,1.426h-0.862c-0.759-0.851-1.838-1.518-3.275-2.001
	c-0.655,0-0.991,0.671-0.991,2.001h-0.426C42.163,161.715,41.072,160.717,39.932,158.73z M41.072,168.398h-1.846v1.571l2.56,0.435
	c0.567-0.665,1.19-1.005,1.849-1.005l-0.716-1.559L41.072,168.398z M49.473,195.739l0.287,0.993
	c-0.657,1.141-0.996,1.996-0.996,2.565h-0.862c-0.467,0-0.712-0.333-0.712-1.004c-0.189,0-1.849,1.201-4.976,3.572l0.281,0.987
	v0.572l-0.281,1.001c-0.566,0-1.332-0.523-2.282-1.572h-0.285c0,0.382,0.095,0.9,0.285,1.572l-0.705,1.987l0.705,0.578h0.434
	c0-1.329,0.328-1.995,0.984-1.995h1.569l0.716,0.414c0-0.278,0.095-0.414,0.285-0.414l-0.711-1.57v-1.559
	c0.284,0,0.671-0.147,1.139-0.445l0.716,0.445c0.277,0,0.52-0.526,0.705-1.579c1.421,0.381,2.133,0.903,2.133,1.579
	c0.676-0.675,1.283-1.001,1.858-1.001c0.285-2.373,0.903-3.564,1.839-3.564c-0.559-1.33-1.038-1.988-1.411-1.988l0.278-1v-0.573
	C50.188,193.738,49.848,194.409,49.473,195.739z M39.647,107.91v1.984h0.285v-1.984H39.647z M39.647,122.572
	c0.285,0,0.523,0.705,0.719,2.134l1.849-0.428c0-0.573-0.519-1.14-1.569-1.706l0.705-1.428v-0.427
	C40.417,120.717,39.851,121.341,39.647,122.572z M39.647,211.961v1.559h0.719v-0.557C40.365,212.489,40.128,212.156,39.647,211.961z
	 M39.932,225.193v1.582c0.485,0,0.713-0.341,0.713-1.005v-0.577H39.932z M40.365,91.678c0,0.763,0.231,1.139,0.707,1.139v-1.139
	H40.365z M40.365,199.297v2.123c0.191,0,0.517,0.149,0.984,0.445v-2.567H40.365z M40.645,94.805v1.004
	c0.487,0,0.705-0.333,0.705-1.004H40.645z M41.072,207.406v1.569c0.373,0,0.623-0.332,0.714-0.998v-0.572H41.072z M41.35,134.385
	c0,0.665,0.298,0.994,0.864,0.994v-0.994H41.35z M41.786,196.731H41.35v0.568c0.298,0,0.677,0.195,1.146,0.573h0.424v-0.573
	C42.641,197.299,42.272,197.119,41.786,196.731z M41.35,216.657v0.428c0,0.665,0.298,1,0.864,1v-0.427
	C42.214,217.002,41.926,216.657,41.35,216.657z M41.786,103.351v0.994h0.428v-0.994H41.786z M43.635,156.165
	c0,0.758-0.231,1.133-0.716,1.133h-0.424l-0.709-0.563c0.377-1.044,0.758-1.57,1.133-1.57
	C43.296,155.165,43.533,155.501,43.635,156.165z M43.209,181.643c0,0.665-0.232,0.99-0.714,0.99l-0.709-0.562
	c0-0.57,0.24-0.903,0.709-0.994L43.209,181.643z M41.786,193.177v0.561c0,0.481,0.709,1.335,2.134,2.567
	c0.665-0.665,1.193-0.994,1.571-0.994c0-0.573-0.289-0.902-0.865-1c-0.469,0-0.937,0.146-1.417,0.427
	c-0.665,0-0.995-0.52-0.995-1.561H41.786z M41.786,209.973v1.425h0.428c0.377,0,0.624-0.292,0.705-0.855
	C42.641,210.543,42.272,210.354,41.786,209.973z M41.786,212.964v1.711h0.709c-0.182-0.76-0.281-1.333-0.281-1.711H41.786z
	 M42.919,179.934h-0.705v-0.285h0.705V179.934z M43.635,186.624h-1.14v-0.572c0-0.475,0.244-0.756,0.714-0.855h0.426V186.624z
	 M45.063,190.183l-0.438,0.99c-0.563-1.034-1.041-1.561-1.417-1.561v-0.855C44.438,188.955,45.063,189.423,45.063,190.183z
	 M44.348,153.178h-0.713v-1.001h0.713V153.178z M43.635,210.543l0.991,1.994c1.234,0,1.998-0.665,2.286-1.994
	c-0.288,0-0.435-0.189-0.435-0.57C45.261,209.973,44.299,210.157,43.635,210.543z M43.92,196.731v1.141
	c0,0.569,0.237,0.855,0.706,0.855h0.865v-0.434C45.491,197.824,44.971,197.299,43.92,196.731z M45.769,138.367l-0.705,1.559
	c-0.479,0-0.716-0.325-0.716-0.983c0-0.577,0.237-0.902,0.716-1.004L45.769,138.367z M46.206,141.932v1.001
	c0,0.756-0.241,1.125-0.715,1.125c0,0.573,0.226,0.861,0.715,0.861c-0.299,0.754-0.438,1.329-0.438,1.71h-0.705
	c-0.479,0-0.716-0.381-0.716-1.143c0-0.468,0.237-0.757,0.716-0.855l-0.438-2.699v-0.573l0.438-0.855
	C45.82,140.978,46.206,141.453,46.206,141.932z M45.063,181.643h-0.438l0.438,0.99h1.143v-0.562
	C45.907,182.071,45.542,181.928,45.063,181.643z M46.912,171.963c-0.288,2.561-0.903,5.4-1.849,8.548
	c0.197,0,1.143-0.19,2.838-0.577l-0.712-1.417v-1.571l2.57-2.988c-1.431,0-2.142-0.665-2.142-1.995H46.912z M45.063,203.423
	c0,0.675,0.227,1.001,0.705,1.001v-1.001H45.063z M45.769,167.266h-0.277v1.132h0.986C46.478,167.84,46.254,167.463,45.769,167.266z
	 M45.769,196.731v0.568c0.572,0,1.041,0.195,1.421,0.573v-1.141H45.769z M46.912,153.178h-0.435c0,0.657,0.146,1.332,0.435,1.987
	c0,0.674-0.231,1-0.706,1l0.706,1.987c1.228,0,1.947-0.468,2.134-1.417c0.287,0,0.427,0.188,0.427,0.563l0.715-0.563h0.712
	l0.699,0.563v-0.563C51.599,156.072,50.045,154.883,46.912,153.178z M46.478,206.411v0.995h1.424v-0.418
	C47.435,206.989,46.959,206.799,46.478,206.411z M46.478,212.964v0.557h0.712v-0.557H46.478z M47.901,146.052v0.577h0.862v-0.577
	H47.901z M53.036,179.934l-1.438-0.285c-0.369,0-0.839,0.285-1.411,0.861h-0.715l-0.709-0.577l-0.434,1.143v0.566
	c0.299,0,0.665,0.139,1.144,0.428c1.142-0.469,1.705-0.994,1.705-1.56c0.29,0,0.665,0.19,1.144,0.566
	c1.229-0.283,1.849-0.757,1.849-1.428C53.888,179.649,53.512,179.744,53.036,179.934z M50.899,188.758
	c0,0.281-0.14,0.774-0.434,1.425c-0.369,0-0.936-0.38-1.702-1.144v1.707h2.136v1.004h0.278l0.861-0.577
	c0,0.774,0.23,1.149,0.705,1.149h0.292v-2.14C52.371,190.183,51.662,189.715,50.899,188.758z M48.764,202.281v0.571
	c0,0.948,0.231,1.953,0.709,2.984l0.715-0.428l-1.142-1.984l0.427-1.143H48.764z M49.76,145.486c0,0.762,0.377,1.143,1.14,1.143
	v1.852h0.278c0-0.574,0.29-0.852,0.861-0.852c-0.571-0.854-0.861-1.577-0.861-2.143H49.76z M49.76,186.052v1.139h1.14v-1.139H49.76z
	 M50.466,209.973h-0.278c0,0.76,0.236,1.133,0.712,1.133h0.278C51.178,210.451,50.94,210.067,50.466,209.973z M51.178,186.052v0.572
	h1.566v-0.999L51.178,186.052z M52.039,154.172c0,0.087,0.23,1.421,0.705,3.98c0.38-0.376,0.855-0.576,1.426-0.576v-0.278h-1.134
	v-3.126H52.039z M52.744,172.964l2.572,2.554c-0.388,0.959-0.771,1.427-1.146,1.427c0,0.664,0.237,0.993,0.719,0.993h0.428
	c0.576-0.657,1.133-0.993,1.701-0.993v-0.852c-0.945,0-1.431-0.373-1.431-1.143v-0.572l0.434-0.996
	C55.16,173.382,54.079,173.246,52.744,172.964z M53.036,183.061v0.427h0.705v-0.427H53.036z M53.453,195.311h-0.417v1.42h0.417
	l0.717-0.426C54.17,195.739,53.939,195.413,53.453,195.311z M54.17,149.613v0.997c0.376,0,0.631-0.322,0.719-0.997H54.17z
	 M54.17,205.835v1.153h0.719v-1.153H54.17z M54.889,203.423v1.001h0.428v-1.001H54.889z M55.316,187.619v1.139h0.704
	C56.021,188.094,55.791,187.718,55.316,187.619z M55.316,192.605h0.704v-0.855C55.54,191.75,55.316,192.035,55.316,192.605z
	 M57.018,217.513v1h0.845v-1H57.018z M57.446,182.633v1.432h0.285v-1.432H57.446z M57.446,192.323v0.282h0.704v-0.282H57.446z
	 M63.429,155.165h-0.576c-1.042,0-2.192,0.525-3.413,1.57l0.563,2.124c0.946-0.557,1.425-1.082,1.425-1.56
	c0.383,0,0.862,0.196,1.425,0.569l1.561-1.702C64.413,155.593,64.094,155.264,63.429,155.165z M64.849,155.593v1.142h1.002v-1.142
	H64.849z M66.844,196.731v0.568h2.276v-0.568H66.844z M69.12,198.441l0.989,0.99c1.341,0,2.098-0.325,2.276-0.99H69.12z
	 M69.12,225.193h2.133v-1.132C69.826,224.061,69.12,224.441,69.12,225.193z M71.253,185.197v0.577h2.133v-0.577H71.253z
	 M74.241,53.393h-1.139c0,0.753,0.376,1.133,1.139,1.133h1.139C75.38,53.862,75.014,53.481,74.241,53.393z M73.386,180.368v0.57
	h3.418v-0.57H73.386z M74.241,70.898l0.576,1.144c0.655,0,1.041-0.387,1.133-1.144H74.241z M74.519,196.731v1.141
	c1.34,0,2.096-0.377,2.285-1.141H74.519z M75.38,46.275h-0.562c0,0.369,0.196,0.946,0.562,1.699h1.71
	c0.38,0,0.942,0.197,1.709,0.576l0.574-1.15c0.566,0,1.509,1.289,2.837,3.843c0.659-0.362,1.426-0.559,2.288-0.559v-0.573
	c-1.629,0-2.755-0.903-3.427-2.711h-2.843C77.002,46.644,76.046,46.275,75.38,46.275z M74.817,133.819v0.987h1.133v-0.987H74.817z
	 M75.38,153.887c0,0.671,0.339,0.997,0.998,0.997c0.573,0,0.909-0.325,0.989-0.997H75.38z M76.523,52.818v1.132h1.134v0.576
	c0,0.753-0.567,1.14-1.707,1.14v0.42c0.377,0,0.949,0.197,1.707,0.576l-1.134,1.697v0.576h0.566l2.283-1.709l1.132,0.57
	c0-0.374,0.187-0.57,0.566-0.57h0.576v1.133h0.562v-0.563l-0.562-1.134v-0.576h0.562l1.133,0.576c0-0.659,0.775-0.997,2.288-0.997
	v-1.14l-2.843,0.567l-1.141-0.567v1.561C78.603,53.92,76.899,52.818,76.523,52.818z M77.09,94.378h-1.14
	c0,0.485,0.949,1.431,2.849,2.855c0.658,0,1.052-0.377,1.141-1.14C79.273,96.093,78.322,95.527,77.09,94.378z M75.95,136.521v0.563
	h1.14v-0.563H75.95z M76.523,81.856c0.764,0.849,1.134,1.946,1.134,3.276c0.769-0.377,1.339-0.573,1.716-0.573l-1.145-1.56
	l1.145-1.707L76.523,81.856z M76.523,101.507c0,0.752,0.376,1.132,1.134,1.132v-1.132H76.523z M77.09,137.661v0.557
	c0.763,0.865,1.139,1.58,1.139,2.154h0.57c0.658,0,1.052-0.387,1.141-1.15C78.996,139.221,78.032,138.713,77.09,137.661z
	 M77.657,134.385c0,0.665,0.375,0.994,1.142,0.994v-0.994H77.657z M78.229,104.769v0.577h1.145v-0.577H78.229z M78.799,119.007v1.14
	h0.574c0.653,0,1.04-0.366,1.132-1.14H78.799z M80.505,63.779c0,0.38-0.197,0.943-0.565,1.709v1.567h0.565
	c0-0.954,0.377-2.045,1.143-3.276H80.505z M79.939,86.265v1.004c0.664,0,1.051-0.338,1.132-1.004H79.939z M79.939,98.23
	c0,0.758,0.368,1.14,1.132,1.14h0.576v-1.14H79.939z M79.939,99.937v0.566h1.132v-0.566H79.939z M79.939,123.423v1.56h0.565v-1.56
	H79.939z M81.071,77.44l0.576,3.276l-1.143,1.716l3.407,5.403c-0.569,1.144-1.124,1.706-1.702,1.706l0.578,0.994l3.405-1.556
	l-0.562-1.144v-0.566h2.278c0-0.576-0.377-0.902-1.138-1.004l0.565-1.132l-0.565-1.146c-1.413,1.146-2.764,1.716-3.983,1.716v-1.716
	c0-0.658,0.555-0.987,1.71-0.987v-0.566c-0.862-1.618-1.809-2.52-2.851-2.72l0.562-1.133l2.845,0.571v-1.145
	C83.912,78.006,82.592,77.826,81.071,77.44z M81.071,102.069v0.57l0.576,2.707c-0.373,0-0.576,0.189-0.576,0.576h1.139
	c0-0.387,0.199-0.953,0.578-1.708l-0.578-1.002l0.578-1.143H81.071z M83.912,63.213h-1.124v1.132c0.848,0,1.607,0.201,2.267,0.566
	v-0.566C85.055,63.779,84.687,63.402,83.912,63.213z M84.498,39.716c0,0.77-0.38,1.132-1.155,1.132v0.574l1.155,1.581
	c0.557,0,1.133-0.727,1.695-2.155c-0.373,0-0.562-0.363-0.562-1.132H84.498z M86.193,43.564c-0.373,0-0.937,0.191-1.695,0.571
	c0,0.373,0.188,0.572,0.557,0.572l-0.557,1.134l-1.155-0.566v1c0.38,0,0.947,0.189,1.712,0.567l2.854-2.135v-0.572
	C87.532,44.135,86.96,43.946,86.193,43.564z M83.912,68.188v1.14h1.143c0.671,0,1.058-0.366,1.139-1.14H83.912z M83.912,73.174v0.99
	c0.666,0,1.061-0.327,1.143-0.99H83.912z M83.912,101.507v1.705h1.719v-1.143C85.257,102.069,84.687,101.88,83.912,101.507z
	 M84.498,57.227v0.57c0.557,1.139,1.133,1.705,1.695,1.705h0.578c-0.373-0.647-0.578-1.413-0.578-2.275H84.498z M84.498,91.108v0.57
	c0,1.139,0.365,1.706,1.133,1.706l-0.576-2.276H84.498z M84.498,103.779v0.99h1.133C85.631,104.214,85.257,103.868,84.498,103.779z
	 M84.498,106.479c0.365,0.664,0.557,1.2,0.557,1.566h0.576v-1.566H84.498z M85.055,76.45v0.423h1.139V76.45H85.055z M85.055,81.292
	c0,0.754,0.379,1.141,1.139,1.141v-1.141H85.055z M86.193,62.779h-0.562c0.562,1.047,1.141,1.567,1.706,1.567v-0.566
	C87.337,63.213,86.96,62.884,86.193,62.779z M87.909,47.975l-1.138,0.576c0.761,0.854,1.138,1.561,1.138,2.133l1.709-1.143
	C89.042,48.5,88.478,47.975,87.909,47.975z M87.337,88.401c0,0.376-0.198,0.951-0.565,1.716h0.565c0.654,0,1.04-0.379,1.141-1.138
	v-0.578H87.337z M86.772,100.502v1.005c0.663,0,1.043-0.34,1.138-1.005H86.772z M88.478,66.051l-1.141,0.427
	c0.368,0.756,0.572,1.33,0.572,1.709h0.568c0.65,0,1.042-0.379,1.141-1.132C89.618,66.479,89.239,66.153,88.478,66.051z
	 M87.909,79.15v0.562c0,0.676,0.373,1.004,1.133,1.004h1.152v-1.004C89.341,79.712,88.575,79.537,87.909,79.15z M88.478,38.728
	v0.987h1.141v-0.987H88.478z M88.478,43.003v0.562h1.141v-0.562H88.478z M88.478,74.741v1.132h1.141v-1.132H88.478z M90.194,70.331
	c-0.773,0-1.152,0.37-1.152,1.133c0,0.763,0.379,1.14,1.152,1.14h0.574v-2.273H90.194z M89.618,56.663v1.134
	c0.652,0,1.035-0.374,1.15-1.134H89.618z M90.194,50.111v3.282h1.133c0-0.387-0.196-0.901-0.559-1.576
	c0-0.377,0.173-0.936,0.559-1.706H90.194z M90.769,39.716v1.132H91.9C91.9,40.201,91.518,39.813,90.769,39.716z M90.769,58.936
	c0.362,0.665,0.559,1.19,0.559,1.567H91.9v-1.567H90.769z M90.769,74.164v1.143H91.9C91.9,74.649,91.518,74.267,90.769,74.164z
	 M91.327,47.975v1.566H91.9v-1.566H91.327z M92.467,67.611H91.9c0.371,0.675,0.566,1.432,0.566,2.286h1.141v-1.143
	C93.607,68.101,93.221,67.72,92.467,67.611z M92.467,72.041H91.9v0.562l0.566,1.004l1.141-0.434
	C93.607,72.508,93.221,72.129,92.467,72.041z M92.467,41.998c0,0.671,0.37,1.004,1.141,1.004h0.558v-1.004H92.467z M93.607,44.135
	l0.558,2.707l-0.558,2.699c0.372,0,0.558,0.189,0.558,0.57c0.303,0,1.429-0.185,3.424-0.57c0-0.468-0.95-1.188-2.838-2.141
	l0.559-2.693l-0.559-1.143L93.607,44.135z M93.607,51.817h1.144v-1.133C93.98,50.684,93.607,51.059,93.607,51.817z M94.165,60.503
	v0.569h1.145v-0.569H94.165z M95.894,40.289c-0.773,0-1.143,0.379-1.143,1.133v0.576c0.369,0,0.936,0.148,1.704,0.427
	c0-0.756,0.184-1.463,0.562-2.137H95.894z M98.158,45.275c-0.569,0-1.142,0.705-1.703,2.125c0.363,0,0.562,0.197,0.562,0.574
	c1.142-0.574,1.715-1.132,1.715-1.699v-1H98.158z"/>
<path fill="#004B71" d="M160.612,34.74c9.777,0,18.127,7.119,25.051,21.347c1.42,3.9,2.133,8.546,2.133,13.957v135.235
	c0,16.598-7.48,28.178-22.486,34.73c-1.899,0.376-3.45,0.563-4.697,0.563h-23.48c-10.841,0-19.509-8.397-26.062-25.193l-0.562-6.831
	V66.76c0-14.417,7.821-25.09,23.479-32.02H160.612z M116.479,72.326v0.555c0,1.628-0.225,2.425-0.705,2.425
	c0,0.289,0.48,1.231,1.416,2.849l-0.711,0.424l-1.703-0.424c0,0.953-0.222,1.429-0.712,1.429l-0.428-1.005h0.428
	c0-0.285-0.144-0.424-0.428-0.424C113.92,74.267,114.878,72.326,116.479,72.326z M114.339,80.568h0.437l-0.437,1.004l1.151,2.415
	v0.573c-0.755,0-1.151,0.336-1.151,1v1.849h1.151c0,0.484-0.376,0.947-1.151,1.421l0.437,0.99v0.578h-0.712
	c0-1.418-0.144-2.751-0.428-3.983l0.428-2.427l-0.428-2.843L114.339,80.568z M114.775,74.313v0.994h0.277v-0.994H114.775z
	 M114.775,76.729v0.434h0.998v-0.434H114.775z M114.775,103.491v1.001h0.277c0.496,0,0.721-0.326,0.721-1.001H114.775z
	 M115.053,133.097c0,0.288-0.087,0.434-0.277,0.434c0.19,1.329,0.911,1.993,2.137,1.993v-0.997
	C116.444,134.527,115.833,134.049,115.053,133.097z M114.775,196.305h0.715v-0.862C115.013,195.549,114.775,195.836,114.775,196.305
	z M115.773,79.15l0.705,1.417v0.576c-0.562-0.659-1.039-0.993-1.426-0.993C115.162,79.485,115.4,79.15,115.773,79.15z
	 M115.053,94.805l0.721,0.441h0.705c-0.177-0.572-0.282-1.048-0.282-1.434h-0.423C115.304,93.91,115.053,94.239,115.053,94.805z
	 M115.773,107.761c0,0.95-0.225,1.953-0.721,2.988l1.859,0.574v-1.995c-0.468,0-0.716-0.515-0.716-1.567H115.773z M115.053,137.939
	v1.987c0.109,0.671,0.348,1.004,0.721,1.004c0-0.281,0.144-0.427,0.423-0.427l-0.423-1.004v-1.56l0.423-0.99h-0.423
	C115.304,137.135,115.053,137.471,115.053,137.939z M115.49,130.681v0.998h0.283v-0.998H115.49z M115.49,184.631v1.57
	c0,0.374,0.706,1.188,2.134,2.421c1.52-0.865,2.339-1.662,2.408-2.421v-0.576h-0.997c-0.467,0-0.705,0.521-0.705,1.565h-0.428
	C116.977,185.682,116.154,184.818,115.49,184.631z M115.49,206.551v0.994c0.485,0,0.706-0.326,0.706-0.994H115.49z M115.773,68.9
	h1.139c0.491,0.095,0.712,0.427,0.712,0.996v0.434h-1.428C116.196,70.043,116.05,69.565,115.773,68.9z M116.479,85.987v1.849
	c-0.462,0-0.705-0.33-0.705-0.993C115.878,86.265,116.114,85.987,116.479,85.987z M115.773,169.122v1.421h0.705v-0.438
	C116.479,169.451,116.254,169.122,115.773,169.122z M115.773,208.976v0.997h0.423v-0.997H115.773z M116.196,61.218v0.846
	c0.485,0,0.716-0.279,0.716-0.846H116.196z M116.196,98.089c0,0.658,0.248,1.004,0.716,1.004l0.277-1.004H116.196z M116.196,168.121
	h0.716v-0.994C116.444,167.215,116.196,167.547,116.196,168.121z M116.479,107.761v0.577h1.146v-1.003
	C117.148,107.629,116.763,107.761,116.479,107.761z M116.479,147.202v0.994c0.498,0,0.711-0.338,0.711-0.994H116.479z
	 M116.912,60.225v0.427h0.712v-0.427H116.912z M116.912,67.056h0.712v0.428h-0.712V67.056z M116.912,112.309v0.433
	c0.491,0,0.712,0.335,0.712,1.001h0.706c0-0.476-0.36-0.943-1.141-1.434H116.912z M116.912,128.693v0.987h0.277v-0.987H116.912z
	 M116.912,131.679c0.196,0.663,0.277,1.139,0.277,1.417h0.435v-1.417H116.912z M116.912,212.387v0.429h0.712v-0.429H116.912z
	 M117.189,62.063v1.003h0.435v-1.003H117.189z M117.624,139.926v1.004h0.706C118.33,140.272,118.109,139.926,117.624,139.926z
	 M117.624,145.773v0.428h0.996v-0.428H117.624z M117.624,194.884v2.415h0.278v-2.415H117.624z M117.902,88.829v0.99h0.718v-0.99
	H117.902z M117.902,97.088v0.572h0.718v-0.572H117.902z M117.902,108.762v0.566c0.494,0.767,0.718,1.421,0.718,1.995h0.415v-0.574
	C118.676,109.436,118.288,108.762,117.902,108.762z M117.902,110.749v1.56h0.428v-1.56H117.902z M117.902,190.469v0.426h0.718
	v-0.426H117.902z M118.33,192.462l-0.428,1.995l0.718,0.427h1.141l-0.435-1.001v-0.427h0.706v-0.994h-0.706v0.994L118.33,192.462z
	 M117.902,197.872v0.855h0.718v-0.855H117.902z M118.33,82.144v0.427h1.431v-0.427H118.33z M118.33,83.565v0.994h0.29
	c0.482,0,0.706-0.329,0.706-0.994H118.33z M118.33,98.089c0.663,1.132,0.996,2.125,0.996,2.99h1.14v-0.577
	c-0.468-1.41-0.929-2.23-1.431-2.414H118.33z M118.33,163.702c0,0.675,0.238,1.003,0.705,1.003v-1.003H118.33z M118.33,177.939
	v1.429h0.29c0.482-0.278,0.851-0.425,1.141-0.425v-0.576C119.191,178.367,118.717,178.235,118.33,177.939z M118.62,77.162v0.994
	h0.706v-0.994H118.62z M118.62,95.659h0.415c0.502,0,0.823-1.132,0.997-3.419C119.761,92.24,119.3,93.384,118.62,95.659z
	 M118.62,122.989v0.861h1.141v-0.861H118.62z M118.62,130.681v0.998h0.415v-0.998H118.62z M118.62,170.542v0.418h0.415
	c0.502,0,0.726-0.279,0.726-0.856v-0.423h-0.435C118.857,169.78,118.62,170.057,118.62,170.542z M118.62,219.646v0.426h0.706v-0.426
	H118.62z M119.761,84.986c0,0.573-0.224,1.185-0.726,1.856v0.993c0,0.486,0.347,0.994,0.997,1.566l0.719-1.566
	c-0.469,0-0.719-0.468-0.719-1.422c0.295-0.575,0.434-1.049,0.434-1.427H119.761z M119.035,91.25h0.726v-0.854
	C119.3,90.494,119.035,90.775,119.035,91.25z M121.173,104.057v0.855h-1.141l-0.706-0.42l-0.291,0.855l0.291,2.414
	c-0.183,0-0.291,0.197-0.291,0.577l0.726,0.424v-2.839l3.127-0.576c0,0.38,0.142,0.576,0.429,0.576v-0.576
	c0-0.377-0.381-0.804-1.133-1.29H121.173z M119.035,133.531v1.56c0.502,0,0.726-0.335,0.726-0.99v-0.57H119.035z M119.035,138.516
	v1.411h0.726v-1.411H119.035z M120.032,171.536c0,0.566-0.319,1.377-0.997,2.422c0,0.664,0.265,0.993,0.726,0.993
	c0.664-0.375,0.99-1.373,0.99-2.988L120.032,171.536z M120.032,55.382v0.427l0.719,1.56v0.428c0,0.563-0.469,0.861-1.425,0.861
	v1.993h0.706v0.566l-0.272,0.846h0.272c0.295,0,0.926-0.936,1.851-2.843v-0.562l-0.413-2.294h0.714v-0.982h-0.301l-0.71,0.427
	C120.71,55.531,120.327,55.382,120.032,55.382z M119.326,70.331h0.435l0.705-0.434c0,1.33,0.577,1.995,1.718,1.995v0.989
	l-0.301,2.425h0.301l1.843-0.417v-0.577c-0.935,0-1.425-0.476-1.425-1.432l0.286-2.55c-1.607,0-2.422-0.474-2.422-1.431
	c0.203-0.665,0.285-1.14,0.285-1.417h-0.285C119.998,67.483,119.611,68.432,119.326,70.331z M119.326,140.93v0.574h0.706v-0.574
	H119.326z M119.326,190.469c0,0.474,0.387,0.952,1.14,1.427c0.577-0.953,1.06-1.427,1.417-1.427v-0.578
	C120.958,190.278,120.097,190.469,119.326,190.469z M120.032,75.873c0,0.295-0.069,0.712-0.272,1.289h0.705v-1.289H120.032z
	 M120.032,182.21v0.423l0.719,1.58v0.983l-0.285,1.004c0.203,0,0.285,0.135,0.285,0.423c-0.359,0-0.719,0.527-0.99,1.561v1.288
	c0.949,0,1.52-1.091,1.709-3.273l1.132-1.004c0.204,1.051,0.679,1.709,1.425,1.994l0.292-3.554l-0.718,0.577h-0.284
	C122.378,182.885,121.28,182.21,120.032,182.21z M120.032,89.819v0.578h0.719v-0.578H120.032z M120.032,101.507v1.556
	c0.491,0,0.719-0.328,0.719-0.994v-0.562H120.032z M120.032,194.457v0.427h1.141l1.715,0.559v-0.986
	c-0.937,0-1.418-0.523-1.418-1.568h-0.297C120.812,192.889,120.425,193.405,120.032,194.457z M120.466,97.66v1.432h0.707
	c-0.279-0.675-0.422-1.153-0.422-1.432H120.466z M120.751,72.326v0.984h0.719v-0.984H120.751z M120.751,83.139v1.421h0.422
	l0.297-2.988C121.001,81.571,120.751,82.093,120.751,83.139z M120.751,139.926v1.004h0.422v-1.004H120.751z M120.751,142.355v1.413
	h0.422v-1.413H120.751z M122.184,86.413v0.995l0.704,1.421c-0.467,0.094-0.704,0.428-0.704,0.99
	c1.417,0.675,2.135,1.341,2.135,1.998v0.424l-0.292,1.005c0.209,0,0.292,0.197,0.292,0.566l-1.717,0.993
	c-0.461-0.38-0.936-0.566-1.429-0.566v1.007c0.392,0,0.859,0.281,1.429,0.848h1.425c0.388,0,0.706-0.942,0.998-2.848l-0.292-1.005
	c0-1.606,0.251-2.421,0.727-2.421C125.459,88.979,124.372,87.835,122.184,86.413z M121.173,90.396v0.854h0.71v-0.854H121.173z
	 M121.173,206.134v0.417h1.011v-0.417H121.173z M121.47,67.483V68.9h0.714v-1.417H121.47z M121.47,107.334v3.415h0.413
	c0-1.133,0.258-2.602,0.719-4.42h-0.418C121.706,106.431,121.47,106.768,121.47,107.334z M122.184,168.121v0.573l0.418,0.987
	c-0.758,0-1.132,1.428-1.132,4.277c0.563,0,1.048,0.139,1.418,0.42c0-0.281,0.142-0.756,0.429-1.414
	c-0.381,0-0.748-0.477-1.133-1.428l0.704-1.432v-0.983C122.888,168.45,122.664,168.121,122.184,168.121z M121.883,50.396v1.565
	h0.719v-2.557C122.141,49.493,121.883,49.832,121.883,50.396z M121.883,78.58v0.571h0.719V78.58H121.883z M121.883,102.497v0.566
	h0.719v-0.566H121.883z M122.602,190.895v1l0.286,0.994c0.475-0.284,0.848-0.427,1.139-0.427c0.489,0.288,0.808,0.427,0.998,0.427
	v0.994c-0.468,0-0.706,0.197-0.706,0.574c0.278,0.569,0.414,1.05,0.414,1.431c-0.926,0-1.416,0.658-1.416,1.984h-0.429l-0.704-0.573
	l-0.301,0.993h1.005v2.421c0,0.664,1.1,1.331,3.275,1.994v0.421c-0.86,2.954-1.461,4.416-1.845,4.416
	c0-0.279-0.083-0.428-0.292-0.428c0,1.241-0.22,1.858-0.71,1.858c0.193,0.475,0.284,1.278,0.284,2.422l1.424-3.419h0.435
	c0.762,0.666,1.336,0.998,1.709,0.998c0-0.38,0.135-0.577,0.414-0.577l-0.414-0.854v-1.411c-0.478,0-0.726-0.339-0.726-1.004v-1.001
	c0.495-1.32,1.099-1.984,1.858-1.984v-1.004c0-0.659-0.23-0.984-0.718-0.984h-0.414l-1.709,0.557
	c-0.757-1.417-1.141-2.71-1.141-3.843l1.411-1.428h0.713l1.43,1.428l-0.29,1.001v0.421h1.424l0.434,1.865
	c-0.468,0.088-0.714,0.417-0.714,0.984h1.704v-1.989c-0.466,0-0.705-0.285-0.705-0.86l1.145-1.987c-0.378,0-0.758-0.469-1.145-1.421
	l0.428-1.001h-1.427v0.574h-0.854c0-0.655-0.081-1.001-0.29-1.001c-0.469,0.281-0.852,0.427-1.14,0.427v-0.427l0.427-0.994
	c-0.849-1.042-1.709-1.567-2.551-1.567l-1.431,0.577C122.888,191.085,122.806,190.895,122.602,190.895z M122.184,64.633v0.421
	c0.087,0.671,0.334,0.997,0.704,0.997v-1.418H122.184z M122.184,84.559v1h0.418c0.49,0,0.715-0.326,0.715-1H122.184z
	 M122.184,131.258v0.982h0.704v-0.982H122.184z M122.184,209.399v0.573h0.704v-0.573H122.184z M122.184,211.397v0.99h0.418v-0.99
	H122.184z M125.459,49.968c0,0.665-0.943,1.947-2.857,3.836c0.204,0.572,0.286,1.427,0.286,2.56c0.475,0,1.1-0.982,1.845-2.971
	c0.964,0,1.431-0.474,1.431-1.432v-1.994H125.459z M122.602,181.643v0.567h0.999v-0.567H122.602z M122.602,189.039v0.852h0.715
	c0.49,0,0.71-0.278,0.71-0.852v-0.854C123.453,188.758,122.986,189.039,122.602,189.039z M122.888,103.491v0.566h0.713v-0.566
	H122.888z M122.888,123.851v0.427h0.429l0.284-1.855C123.131,122.423,122.888,122.907,122.888,123.851z M122.888,129.681v0.573
	h0.713v-0.573H122.888z M122.888,158.014v0.428c0.475,0.762,0.713,1.421,0.713,1.983h0.426v-0.562
	C123.667,158.627,123.28,158.014,122.888,158.014z M123.316,107.334v0.427c0,0.671,0.243,1.001,0.71,1.001l0.292-1.001v-0.993
	C123.84,107.143,123.51,107.334,123.316,107.334z M123.316,132.241c0,0.577,0.243,0.856,0.71,0.856h0.292v-0.856H123.316z
	 M123.601,61.635v0.428c0.095,0.671,0.344,1.003,0.718,1.003l0.414-1.003v-0.428H123.601z M123.601,211.815v1.001h0.718v-1.001
	H123.601z M124.318,68.9l-0.292,0.996v0.434c0.489,0.845,0.706,1.52,0.706,1.995c0.488-0.285,0.815-0.434,0.997-0.434
	C125.16,69.897,124.702,68.9,124.318,68.9z M124.318,178.367l-0.292,1.001l0.706,0.426c0.488,0,0.727-0.288,0.727-0.851
	C125.16,178.943,124.794,178.754,124.318,178.367z M124.026,205.13v1.004h0.706v-1.004H124.026z M124.318,58.658v0.99
	c0.476,0,0.706-0.327,0.706-0.99H124.318z M124.318,165.282v0.417h1.141v-0.417H124.318z M124.318,176.379v0.566h0.706v-0.566
	H124.318z M124.732,140.93v1.002h0.727v-2.005C124.983,140.025,124.732,140.371,124.732,140.93z M124.732,188.186
	c0.211,0.572,0.292,1,0.292,1.288h0.705v-1.288H124.732z M125.024,83.986c0.387,1.33,0.78,2,1.139,2
	c0-0.284,0.089-0.427,0.279-0.427c-0.19-0.573-0.279-1.231-0.279-1.994h-0.434L125.024,83.986z M125.024,97.088v0.572
	c0,0.478,0.48,1.087,1.418,1.85c0.116-0.665,0.353-0.995,0.726-0.995c0.277,0.659,0.414,1.33,0.414,1.987h0.29
	c0.279-1.044,0.428-2.185,0.428-3.414c-1.716,0.376-2.637,0.572-2.841,0.572C125.459,97.284,125.303,97.088,125.024,97.088z
	 M125.459,60.651v0.984h1.709c0.475,0.108,0.704,0.428,0.704,1.004v1.418c-0.477,0-0.704-0.318-0.704-0.991
	c-0.373,0.376-0.947,0.573-1.709,0.573v0.418l0.271,2.57c-0.182,0-0.271,0.132-0.271,0.428h0.271c0.395,0,1.001-0.805,1.853-2.422
	c0.487-0.38,0.854-0.576,1.144-0.576c0-1.51-0.615-2.788-1.856-3.833C126.51,60.503,126.021,60.651,125.459,60.651z
	 M126.869,101.079c0,0.476-0.469,1.608-1.41,3.413c0.385,1.235,0.704,1.837,0.983,1.837h0.427c0-1.132,0.244-2.74,0.713-4.822
	L126.869,101.079z M125.459,108.337v0.99l0.704-0.566v0.566l-0.704,1.995h1.41c0-1.042,0.347-1.568,1.003-1.568v-0.427
	c-0.29,0-0.759-0.325-1.43-0.99H125.459z M125.459,168.121v1.001c0.474,0,0.704-0.336,0.704-1.001H125.459z M125.73,90.823
	c0.562,0,1.065,0.139,1.438,0.427v-0.427c0-0.658-0.23-1.004-0.726-1.004C125.974,89.928,125.73,90.256,125.73,90.823z
	 M125.73,211.815v1.001h0.434v-1.001H125.73z M126.442,215.379l-0.279,1.001h1.005C127.168,215.722,126.938,215.379,126.442,215.379
	z M126.163,231.896l0.706,0.427c0.496,0,0.713-0.339,0.713-1.004l-0.713-0.427C126.4,230.995,126.163,231.319,126.163,231.896z
	 M126.442,58.224c0.116,0.671,0.353,0.997,0.726,0.997h0.414c0-0.655-0.217-0.997-0.713-0.997H126.442z M126.869,48.123
	c0.496,1.988,0.713,3.086,0.713,3.27c0.487-0.282,0.854-0.427,1.144-0.427v-0.569l-0.854-1.417c0.279,0,0.428-0.149,0.428-0.428
	l-0.718-0.428H126.869z M127.168,56.809v0.987h0.414v-0.987H127.168z M127.168,113.309l0.414,0.856
	c-0.279,0.577-0.414,1.051-0.414,1.428c0.76-0.18,1.132-1.469,1.132-3.843h-0.428C127.396,111.749,127.168,112.275,127.168,113.309z
	 M127.582,148.761v3.273c0.396,0,0.854,0.339,1.424,0.997h0.434v-0.997c-0.756,0-1.14-0.291-1.14-0.862l0.706-1.417v-0.57
	l-0.706,0.57C128.3,149.097,128.069,148.761,127.582,148.761z M128.3,215.806c0,0.574-0.23,1.197-0.718,1.853
	c1.424,2.94,2.143,4.749,2.143,5.402c0.767-0.179,1.145-1.508,1.145-3.981l-0.717,0.568h-0.428c-0.476,0-0.793-1.283-0.999-3.841
	H128.3z M127.872,58.658h0.854v-0.861C128.151,57.901,127.872,58.173,127.872,58.658z M127.872,210.399
	c0,0.469,0.385,0.957,1.134,1.415v-1.415H127.872z M128.3,85.987v0.856h0.706C129.006,86.265,128.782,85.987,128.3,85.987z
	 M128.3,93.245v1.56h0.706v-1.56H128.3z M128.726,202.708l0.28,0.855l-0.28,0.993h1.427v-1.849H128.726z M129.006,47.546
	l2.144-0.427v-0.562c0-0.577-0.224-0.862-0.72-0.862C130.071,45.695,129.579,46.319,129.006,47.546z M132.567,102.069
	c0,1.619-0.326,2.422-1.004,2.422l-0.694-0.435v0.855c0.28,0,0.761,0.335,1.419,1.01l-0.725,1.838c-0.736,0-1.134-0.617-1.134-1.838
	h-0.705c0,0.469-0.22,1.083-0.719,1.838v0.577c0.105,0.665,0.353,0.99,0.719,0.99c0-1.322,0.239-1.994,0.705-1.994
	c0,1.618,0.397,2.42,1.134,2.42c0-0.467,0.488-0.941,1.432-1.417c0-0.38-0.149-0.577-0.428-0.577c0-2.177,0.495-3.269,1.421-3.269
	v-0.435c-0.469-0.844-0.716-1.518-0.716-1.987H132.567z M129.439,88.401v0.428h0.713v-0.428H129.439z M130.152,59.221l0.277,2.415
	v0.428l-0.705,1.576h0.428c0.479-0.376,0.814-0.573,0.997-0.573l-0.28-1.003c0.478-1.035,0.694-1.988,0.694-2.843H130.152z
	 M129.725,216.379c0.196,0,0.906,0.139,2.129,0.424l0.435-0.998l-1.858-0.427C129.964,215.474,129.725,215.806,129.725,216.379z
	 M130.152,56.364v1.005c0.197,0.855,0.9,1.289,2.136,1.289h0.707v-0.861c-0.754,0-1.142-0.468-1.142-1.433H130.152z
	 M130.152,149.186h0.997v-0.991h-0.28C130.389,148.283,130.152,148.616,130.152,149.186z M130.152,165.699h0.277v0.994h-0.277
	V165.699z M130.869,175.945c1.903,0.387,2.837,1.053,2.837,1.994c-1.319,1.52-2.034,2.284-2.143,2.284h-1.411v-0.429
	C130.152,178.465,130.389,177.186,130.869,175.945z M130.869,89.402l0.28,2.838c-0.183,0.676-0.28,1.202-0.28,1.571
	c0.945-1.319,1.655-1.995,2.126-1.995V91.25c-0.943,0-1.432-0.616-1.432-1.848H130.869z M130.869,121.429
	c0,0.665,0.227,0.994,0.694,0.994h0.29c0-0.655-0.224-0.994-0.704-0.994H130.869z M131.149,143.352v0.861h0.414v-0.861H131.149z
	 M131.854,99.51c0.286,0.664,0.435,1.322,0.435,1.998h0.279c0-0.957,0.148-2.089,0.428-3.418
	C132.625,98.089,132.241,98.563,131.854,99.51z M131.854,135.09v0.433l0.435,2.416l0.984-0.99c-0.366-1.234-0.705-1.858-0.984-1.858
	H131.854z M131.854,220.072c0.771,0,1.142,0.665,1.142,2.005h0.993l-0.716-1.427l0.434-2.565c-0.286,0-0.434-0.148-0.434-0.427
	C132.344,217.936,131.854,218.744,131.854,220.072z M132.995,76.308h0.277v0.421c0,0.573-0.21,0.861-0.705,0.861l-0.279-0.861
	L132.995,76.308z M132.288,129.264v0.99h0.279v-0.99H132.288z M132.567,42.147v0.984h0.428v-0.984H132.567z M132.567,153.031v1
	h0.428v-1H132.567z M132.995,144.769v1.004c0,0.665,0.236,1.001,0.711,1.001c0-0.378,0.103-0.902,0.282-1.577
	C133.809,145.198,133.486,145.067,132.995,144.769z M133.272,96.093v0.566h0.716v-0.566H133.272z M133.272,126.265v0.577h0.716
	v-0.577H133.272z M134.412,42.147l-0.424,0.984c0.779,0.672,1.486,1.004,2.133,1.004v-1.004
	C135.556,43.131,134.982,42.802,134.412,42.147z M133.988,211.397v0.417c0.104,0.674,0.336,1.001,0.716,1.001v-1.419H133.988z
	 M134.704,50.966v0.427c0,0.474,0.387,0.996,1.139,1.567h0.278C136.121,52.389,135.653,51.726,134.704,50.966z M134.704,214.382
	v0.428l1.417,0.569v-0.997H134.704z M134.704,221.077v1.56l1.852-0.56h0.705l0.998,0.983c0-0.277,0.145-0.423,0.434-0.423
	c-0.936-1.611-1.432-2.795-1.432-3.559C136.041,219.079,135.191,219.748,134.704,221.077z M135.132,226.066v0.844h0.284v-0.844
	H135.132z M136.121,156.444h0.435c0.381,0,0.705,0.528,0.987,1.569l-0.706,0.428l-0.716-1.422V156.444z M136.556,50.396v0.996
	c0.487,0,0.705-0.333,0.705-0.996H136.556z M136.556,57.797v0.861c0.487,0,0.705-0.298,0.705-0.861H136.556z M137.261,52.959
	c0.496,0.76,0.709,1.37,0.709,1.845c0.493,0,0.723-0.325,0.723-1v-0.411l-0.434-1.004C137.792,52.769,137.478,52.959,137.261,52.959
	z M137.261,62.639h0.998v-1.004h-0.289C137.503,61.744,137.261,62.063,137.261,62.639z M137.97,58.658v0.562
	c0.493,0,0.723,0.478,0.723,1.431h0.278v-1.431l-0.712-0.562H137.97z M137.97,226.477v0.861h0.723
	C138.692,226.775,138.463,226.477,137.97,226.477z M138.692,50.396v0.996c0.48,0,0.705-0.333,0.705-0.996H138.692z M141.534,55.809
	c0,1.051-0.223,1.56-0.715,1.56c0-0.658-0.214-1.005-0.716-1.005h-0.706c-0.469,0.116-0.705,0.445-0.705,1.005l1.71,1.289
	l0.417-0.861l0.715,0.427h0.286l0.428-2.415H141.534z M138.692,72.326v130.671c0,6.731,2.092,10.106,6.255,10.106h7.834
	c4.194-0.946,6.254-3.177,6.254-6.691V68.9c-0.835-4.457-2.924-6.688-6.254-6.688h-7.834
	C140.784,62.212,138.692,65.583,138.692,72.326z M140.104,51.962l-0.706,3.42c1.15-1.052,2.104-1.578,2.851-1.578l-0.428-0.845
	l-0.706,0.434c-0.469,0-0.712-0.474-0.712-1.432H140.104z M139.687,224.638l-0.289,0.984c0,0.576,0.246,0.855,0.706,0.855h0.299
	v-0.855C140.402,224.967,140.165,224.638,139.687,224.638z M139.687,61.635c0.099,0.675,0.354,1.004,0.716,1.004l0.417-1.004
	H139.687z M140.104,50.396c0.108,0.663,0.352,0.996,0.716,0.996v-0.996H140.104z M156.763,53.393v1.411h0.713v-0.428
	C157.476,53.719,157.254,53.393,156.763,53.393z M158.757,55.809c0,1.613-0.428,2.415-1.281,2.415l0.42,0.997v0.428l-0.699,1.569
	h1.561v-1.569c0-0.95,0.386-2.226,1.139-3.839H158.757z M157.196,215.806h1.561c0.386,0,0.922,0.625,1.567,1.853
	c-0.278,0.953-1.071,1.42-2.429,1.42C157.434,217.562,157.196,216.479,157.196,215.806z M158.757,227.906v1.001h0.434v-1.001
	H158.757z M159.612,226.066v1.271c0,0.665,0.245,0.997,0.712,0.997l0.853-1.424v-0.844H159.612z M159.896,229.331v0.988
	c0.11,0.676,0.388,1,0.856,1l0.426-1c0-0.654-0.285-0.988-0.853-0.988H159.896z M161.178,212.387
	c0.485,0.102,0.706,0.429,0.706,1.004v0.991h-0.706c-0.565,0-0.853-0.332-0.853-0.991
	C160.426,212.727,160.718,212.387,161.178,212.387z M160.752,52.389v1.415l0.846,1.578c0.782-0.38,1.142-0.706,1.142-1.005
	C162.659,53.522,161.993,52.868,160.752,52.389z M160.752,57.369v0.855l0.846-0.427c0.503,0.104,0.721,0.376,0.721,0.861h-0.721
	v0.562h0.721c0-0.366,0.15-0.562,0.421-0.562v1.566h0.867c0.479,0,0.699-0.339,0.699-1.004c-0.738,0-1.132-0.801-1.132-2.411
	L160.752,57.369z M162.318,86.842h1.288c0.479,0.088,0.699,0.427,0.699,0.993c-0.175,2.282-0.573,3.415-1.132,3.415
	c-1.314-0.854-1.996-1.472-1.996-1.848v-1C161.178,87.927,161.565,87.408,162.318,86.842z M161.598,96.659h0.721
	c0.577,0.1,0.855,0.429,0.855,1.001c0,0.57-0.278,0.855-0.855,0.855c-0.459,0-0.721-0.285-0.721-0.855V96.659z M163.606,198.292
	h0.422l2.413,2.849l-3.702,1.004l-0.855-1.432C162.469,199.201,163.027,198.4,163.606,198.292z M163.606,188.622l1.561,2.849v0.424
	c0,0.657-0.285,0.994-0.861,0.994l-1.987-2.42v-0.578C162.318,189.423,162.739,189.006,163.606,188.622z M162.739,108.762v0.566
	h0.867v-0.566H162.739z M163.174,52.389v0.57c0.102,0.563,0.393,0.845,0.855,0.845l0.277-0.845v-1.567h-0.277
	C163.462,51.488,163.174,51.817,163.174,52.389z M163.174,123.851c1.24,2.659,2.054,3.992,2.414,3.992v-1.001
	c0-1.709-0.421-2.713-1.282-2.991H163.174z M163.606,120.995c0.282,0.671,0.422,1.141,0.422,1.428h0.714v-0.424
	c0-0.658-0.231-1.004-0.714-1.004H163.606z M164.028,210.399l-0.422,0.998l0.699,0.417l0.437-0.987L164.028,210.399z
	 M164.028,222.077v0.983c0.483,0,0.714-0.328,0.714-0.983H164.028z M164.306,101.507v1.556h0.437v-1.556H164.306z M164.306,137.939
	v1.56h0.437v-1.56H164.306z M164.306,183.637c0.108,0.659,0.395,0.995,0.861,0.995l0.421-0.995H164.306z M164.306,195.888h0.861
	c0.569,0.081,0.849,0.417,0.849,0.983l-1.273,1.001l-0.437-1.001V195.888z M164.742,177.939v0.428h1.273
	c0-0.556,0.67-1.889,1.994-3.988c0-0.184,0.148-1.132,0.428-2.842h-0.428C167.731,171.536,166.639,173.672,164.742,177.939z
	 M165.167,59.221v1.004h0.421v-1.004H165.167z M165.588,119.007l-0.421,2.421v0.57c0.675-0.658,1.2-1.004,1.561-1.004v-0.983
	c0-0.665-0.217-1.004-0.712-1.004H165.588z M165.167,136.521v0.99h0.849v-0.99H165.167z M165.167,211.815v0.572
	c0.103,0.675,0.38,1.004,0.849,1.004v-0.575C166.016,212.156,165.736,211.815,165.167,211.815z M165.588,56.809v0.56h1.567v-1.005
	h-0.428C166.269,56.663,165.887,56.809,165.588,56.809z M170.431,146.774c0,0.654-0.788,0.986-2.421,0.986l0.725,1.425v0.57
	c0,0.285-0.095,0.434-0.297,0.434l0.297,0.983v0.862c0,0.668-0.23,0.997-0.725,0.997c-0.747,0-1.568-0.329-2.422-0.997v0.421
	c0.299,1.717,0.82,2.571,1.567,2.571c0.576-0.387,1.002-0.566,1.282-0.566l0.711,1.561v0.424c0,0.766-0.645,1.281-1.993,1.569
	l0.436,0.845c0.847-0.557,1.518-0.845,1.979-0.845c0.305,0.567,0.428,1.042,0.428,1.421c-0.278,0.671-0.428,1.147-0.428,1.429
	c0.584,0.096,0.861,0.376,0.861,0.851v0.996h-0.861l-1.979-1.847h-0.436v0.426c0.854,1.232,1.282,2.236,1.282,2.988h0.297
	l4.11,0.427c0-0.665,0.245-1.003,0.714-1.003c0.108,0.675,0.385,1.003,0.864,1.003h0.425v-1.003c-0.754,0-1.567-0.327-2.423-0.991
	c0,0.665-0.285,0.991-0.852,0.991h-0.437c-0.469,0-0.706-0.327-0.706-0.991c1.058-0.468,1.567-0.943,1.567-1.421
	c-0.359,0-0.753-0.478-1.141-1.427v-1.421c0-0.469,0.388-0.948,1.141-1.422c0.956,1.608,1.911,2.415,2.85,2.415v-0.993
	c0-0.29-0.425-0.757-1.289-1.422c0.298-0.664,0.42-1.18,0.42-1.566l-0.698-0.428c0,0.285-0.139,0.428-0.436,0.428
	c-0.277-0.665-0.42-1.141-0.42-1.422h-0.427c0,1.619-0.292,2.413-0.861,2.413h-0.706c-0.557,0-0.861-0.326-0.861-0.991v-3.419
	c0.584-0.563,0.861-1.845,0.861-3.839c0.207,0,0.854,0.845,1.994,2.561v-1.57C172.425,148.711,171.771,147.906,170.431,146.774z
	 M165.588,167.694h0.854v-1.001C165.887,166.788,165.588,167.127,165.588,167.694z M166.016,164.278v0.427
	c0.495,0,0.712-0.328,0.712-1.003v-0.428C166.269,163.376,166.016,163.702,166.016,164.278z M166.016,169.681
	c0.393,1.248,0.78,1.855,1.14,1.855l0.436-1.855l-0.863-0.559L166.016,169.681z M166.441,115.592v0.993h0.286v-0.993H166.441z
	 M166.441,124.855v0.416c0.197,0.668,0.286,1.19,0.286,1.57h0.428v-1.986H166.441z M166.441,127.268v1.425
	c0.503,0,0.714-0.292,0.714-0.851v-0.574H166.441z M166.441,149.186v1.57c0.503,0,0.714-0.336,0.714-1v-0.57H166.441z
	 M166.728,53.393l0.863,0.411l0.847-1.415h-0.847C167.02,52.492,166.728,52.818,166.728,53.393z M166.728,92.817v0.994h0.428v-0.994
	H166.728z M166.728,137.939v2.991h1.282v-1.986c0-0.675-0.278-1.004-0.854-1.004H166.728z M167.155,143.768
	c0,0.675-0.136,1.001-0.428,1.001l0.428,1.004v1.428c1.061-0.478,1.579-0.954,1.579-1.428L167.155,143.768z M167.591,95.246
	l-0.436,2.414c0.387,0,0.922-0.664,1.579-2.001l-0.725-0.414H167.591z M167.155,114.164v0.854c1.061-0.461,1.579-0.896,1.579-1.275
	v-0.435h-0.725C167.436,113.418,167.155,113.696,167.155,114.164z M167.155,129.264v0.99h1.282v-0.99H167.155z M167.155,179.794
	v0.429h1.993v-0.855L167.155,179.794z M169.997,114.598c0,0.848-0.278,1.663-0.849,2.416c0.282,0.664,0.421,1.19,0.421,1.567
	c-0.279,0-0.421-0.19-0.421-0.574c-0.458,0.384-0.991,0.574-1.558,0.574v1.004c1.915,0,2.84,0.475,2.84,1.411l-0.434,1.995
	c0.287,0.577,0.434,1.01,0.434,1.289h0.427c0-1.906,0.238-2.849,0.716-2.849h0.425l1.282,0.994h0.278l-3.128-3.842v-0.574
	l1.143-1.987c0-0.479-0.37-0.946-1.143-1.421H169.997z M167.591,164.705v0.994h0.847v-0.994H167.591z M167.591,185.197v0.428
	c0.101,0.671,0.377,0.999,0.847,0.999c0.483-0.289,0.852-0.423,1.132-0.423v-1.004H167.591z M167.591,195.443h0.419v0.862h-0.419
	V195.443z M168.01,65.627v0.424h1.139v-0.424H168.01z M169.148,83.139c0,0.475-0.365,1.282-1.139,2.421l0.725,3.27h1.263
	c0-1.039,0.156-1.848,0.434-2.416c-1.141,0-1.696-0.277-1.696-0.854c0.476-0.375,1.05-0.573,1.696-0.573v-0.427
	C170.431,84.081,169.997,83.613,169.148,83.139z M170.857,103.491c0,0.377-0.147,0.854-0.427,1.421
	c-0.366-0.278-1.041-0.42-1.993-0.42c0,0.278-0.151,0.755-0.428,1.431c0.952,0,1.987,0.614,3.127,1.838
	c2.488,0,3.711-1.084,3.711-3.269h-0.425l-0.864,0.42C172.902,104.912,171.998,104.444,170.857,103.491z M169.148,131.258
	c-0.458-0.38-0.862-0.577-1.139-0.577v0.577c0.101,0.277,0.911,1.377,2.421,3.268v0.997h-0.861v1.425
	c2.201-0.57,3.275-1.194,3.275-1.858c-1.139,0-1.708-0.335-1.708-0.99v-0.57h1.288c-1.041-2.192-1.715-3.277-1.994-3.277
	L169.148,131.258z M168.01,143.352h1.56v-0.997h-0.835C168.257,142.456,168.01,142.783,168.01,143.352z M168.438,59.221v1.004h0.711
	v-1.004H168.438z M168.438,110.322v0.427h0.297l3.691-0.427c0.292,0.572,0.42,1.05,0.42,1.427l-0.42,0.993
	c0.382,1.239,0.766,1.855,1.134,1.855v-3.275l-1.134-2.561C169.784,109.05,168.438,109.564,168.438,110.322z M168.438,123.851v1.005
	h1.132c0-0.667-0.279-1.005-0.835-1.005H168.438z M168.734,68.476v0.851c0.082,0.666,0.374,1.004,0.835,1.004v-1.855H168.734z
	 M169.148,71.892v0.989h0.421c0.584,0,0.861-0.325,0.861-0.989H169.148z M169.148,141.504c0.494,0,1.064,0.281,1.709,0.851
	c0-0.285,0.109-0.423,0.279-0.423l-0.279-1.002c0-0.467,0.673-1.132,1.987-1.986l2.003,0.555l0.419-0.983
	c-0.462,0-1.288-0.665-2.422-1.994C171.055,138.217,169.834,139.885,169.148,141.504z M169.569,181.643l-0.421,0.99v1.58
	c0.849-1.051,1.52-1.58,1.988-1.58v-0.99l-0.706,0.567L169.569,181.643z M169.148,187.191v0.995h0.421v-0.995H169.148z
	 M169.569,73.886v1.004h0.428v-1.004H169.569z M169.569,101.079v0.428c0.305,0.664,0.428,1.18,0.428,1.556
	c0.393,0,0.78-0.525,1.14-1.556v-0.428H169.569z M169.569,173.958v1.987c0.495,0,0.93-0.994,1.288-2.98h-0.427
	C169.874,173.056,169.569,173.382,169.569,173.958z M169.569,202.708v0.421h0.861v-0.421H169.569z M169.997,61.218v0.846h0.86
	c0.486,0,0.716-0.279,0.716-0.846v-0.566C171.096,61.028,170.574,61.218,169.997,61.218z M169.997,98.089
	c0.108,0.658,0.393,1.004,0.86,1.004l0.279-1.004H169.997z M170.431,75.873l0.427,0.856c0.486-0.278,0.849-0.421,1.141-0.421v-0.435
	c0-0.658-0.292-0.983-0.861-0.983C170.668,74.971,170.431,75.307,170.431,75.873z M170.431,165.699v0.994
	c0.494-0.38,0.854-0.569,1.143-0.569v-0.425H170.431z M170.857,213.82l-0.427,2.984h0.706l0.437-2.422v-0.562H170.857z
	 M170.431,219.646v0.426h0.706v-0.426H170.431z M171.137,56.809l-0.279,0.987v0.427h0.279c0.569,0,0.861-0.282,0.861-0.855
	L171.137,56.809z M170.857,63.066v0.991c1.63,0,2.423,0.339,2.423,0.997c0.387-0.282,0.912-0.421,1.567-0.421v-0.576
	c-0.563,0-0.869-0.137-0.869-0.418c-0.271,0-0.42,0.14-0.42,0.418C173.09,64.057,172.208,63.739,170.857,63.066z M170.857,65.054
	v1.573c0.57,0,1.1,0.132,1.567,0.428v-1.004C172.065,66.051,171.53,65.725,170.857,65.054z M171.137,67.483l-0.279,2.413
	c0.197,0.671,0.279,1.147,0.279,1.428h0.437c0-0.281,0.133-1.561,0.425-3.842H171.137z M170.857,175.945v0.435
	c0,0.657,0.238,0.983,0.716,0.983h0.425v-0.417l-0.425-1.001c0.566,0,0.852-0.329,0.852-0.994v-0.993
	C172.065,173.958,171.53,174.622,170.857,175.945z M171.137,58.658c0,0.475,0.437,0.99,1.288,1.566v-1.566H171.137z M171.998,81.143
	l0.427,2.422c-0.359,0-0.786,0.468-1.288,1.421h0.861c0.386,0,0.904-0.803,1.561-2.416c0-0.478-0.368-0.952-1.134-1.427H171.998z
	 M171.573,97.088v0.572h1.271v0.429l-1.708,1.987c0.291,0,0.714,0.138,1.288,0.426c0.57-1.895,1.242-2.842,1.998-2.842v-0.572
	c-0.369,0-0.894-0.329-1.578-0.995h-0.42C171.851,96.182,171.573,96.514,171.573,97.088z M171.137,167.694v0.427h0.861v-1.428
	C171.428,166.788,171.137,167.127,171.137,167.694z M171.573,123.423v0.427l0.852,1.421l1.998-0.416h0.425l-0.425,2.413v0.574
	c0.77,0,1.133,0.278,1.133,0.851v0.57l-0.289,0.99h0.289c2.2-1.132,3.272-1.934,3.272-2.412v-2.004h-0.852
	c0,1.34-0.37,2.004-1.144,2.004h-0.844c-0.467,0-0.723-0.336-0.723-1.001c0-0.756,0.102-1.43,0.289-1.986
	c-0.188-0.667-0.289-1.15-0.289-1.432l-1.986,0.427h-0.855L171.573,123.423z M171.998,86.842c0.102,0.663,0.386,0.993,0.847,0.993
	v-0.993H171.998z M171.998,205.557v0.995h1.282v-0.995H171.998z M172.425,70.898v2.988c0.57-0.38,0.947-0.576,1.134-0.576v-2.412
	H172.425z M172.425,88.401v1.995h0.42c0.502-0.381,0.862-0.578,1.134-0.578C173.979,89.352,173.488,88.883,172.425,88.401z
	 M173.559,115.592c-0.469,1.332-0.842,1.997-1.134,1.997c0.292,1.04,0.808,1.695,1.554,1.994c0-0.665,0.444-1.004,1.288-1.004
	v-0.991c-0.844,0-1.288-0.339-1.288-1.005c0.306,0,0.444-0.189,0.444-0.566L173.559,115.592z M172.425,128.693v0.57h0.855v-0.57
	H172.425z M172.425,159.863v1.001c0.57,0,0.855-0.329,0.855-1.001H172.425z M172.845,67.909V68.9c0.78,0,1.134,0.143,1.134,0.427
	l0.869-0.427c0.486,0.291,0.847,0.427,1.142,0.427v-1.844c-0.362,0-0.901-0.29-1.566-0.856h-0.444
	C173.625,66.627,173.232,67.056,172.845,67.909z M172.845,80.15c0,0.664,0.245,0.993,0.714,0.993c0-0.379,0.148-0.576,0.42-0.576
	c-0.271-0.655-0.42-1.133-0.42-1.417C173.09,79.255,172.845,79.584,172.845,80.15z M172.845,93.245v0.994h1.578
	c0-0.655-0.289-0.994-0.864-0.994H172.845z M172.845,102.069v0.428c0.502,0,1.134,0.525,2.003,1.56l0.419-0.993
	c-0.739,0-1.173-0.852-1.288-2.561C173.625,100.502,173.232,101.029,172.845,102.069z M177.977,130.254
	c0,1.61-0.509,2.422-1.56,2.422c-1.717-0.665-2.889-0.997-3.572-0.997c0,0.956,1.064,1.763,3.145,2.421l0.428,1.844h0.416
	c0.773,0,1.283-1.751,1.572-5.264v-0.427H177.977z M174.423,209.399c0,1.333-0.514,1.998-1.578,1.998
	c0.297,0.564,0.436,1.227,0.436,1.994h0.698c0-0.665,0.444-1.807,1.288-3.419L174.423,209.399z M172.845,209.399v1h0.436v-1H172.845
	z M173.28,87.408c0,0.664,0.248,0.993,0.698,0.993h0.444c0-0.658-0.289-0.993-0.864-0.993H173.28z M173.559,186.624v1.998h0.42
	v-1.998H173.559z M174.423,189.474c0,0.479-0.289,1.144-0.864,1.998l0.864,0.424c0.566,0,0.844-0.335,0.844-1v-0.426
	C175.267,189.803,174.989,189.474,174.423,189.474z M173.979,151.173v0.428c0.214,0.854,0.869,1.478,2.011,1.858v-1.858
	L173.979,151.173z M175.556,176.946c0,0.865-0.363,1.947-1.133,3.277h0.844c0-0.288,0.393-1.381,1.15-3.277H175.556z
	 M174.848,197.299v0.993h0.708v1.427c-0.751,0-1.133,0.669-1.133,1.998l0.844,0.428l0.723-0.428l-0.434-1.004v-0.995
	c0.491,0,1.059-0.334,1.705-0.992l0.716,0.426v-0.426C177.897,197.777,176.833,197.299,174.848,197.299z M174.423,219.079v0.568
	h0.844v-0.568H174.423z M174.848,59.221c0.102,0.665,0.345,1.004,0.708,1.004h0.434v-1.004H174.848z M174.848,73.886l0.419,1.004
	l-0.419,0.983l0.708,0.435h0.861l-0.428-2.422H174.848z M174.848,78.156v0.995h0.419v-0.995H174.848z M174.848,93.245v0.994h0.419
	v-0.994H174.848z M174.848,106.329v1.005h0.419c0.486,0,0.723-0.329,0.723-1.005H174.848z M174.848,205.13v1.987l2.413,1.858
	c0-0.38,0.155-0.854,0.428-1.431c-1.132,0-1.699-0.326-1.699-0.994l0.844-1.421H174.848z M175.267,120.995v1.428
	c0,0.674,0.256,1,0.723,1c0.567,0,0.844-0.327,0.844-1L175.267,120.995z M175.267,149.186v1.003h0.289v-1.003H175.267z
	 M175.267,185.626c0,0.481,0.393,0.999,1.15,1.565h0.844v-0.99L175.267,185.626z M175.989,109.754l-0.434,0.995v1h1.277v-1
	C176.833,110.095,176.557,109.754,175.989,109.754z M175.989,115.018l-0.434,1.001c0.276,0.665,0.434,1.184,0.434,1.571h1.271
	C176.896,115.881,176.466,115.018,175.989,115.018z M175.556,174.378v1h0.434v-1H175.556z M175.556,194.457v1.431
	c0.104,0.658,0.382,0.983,0.861,0.983h0.416l-0.416-0.983c0.282-0.675,0.416-1.15,0.416-1.431H175.556z M175.989,89.402v0.995h0.428
	v-0.995H175.989z M175.989,189.039v0.852h0.844C176.833,189.335,176.557,189.039,175.989,189.039z M176.833,89.819v1.431h0.428
	v-1.431H176.833z M176.833,104.057v1.29c0.583,0,0.855-0.285,0.855-0.855v-0.435H176.833z M176.833,170.104v0.856h0.855v-0.856
	H176.833z M177.261,84.986v1h0.716C177.977,85.316,177.756,84.986,177.261,84.986z M177.977,106.329l-0.716,1.432v0.577
	c1.526,0.95,2.483,1.417,2.849,1.417v-0.993h-0.854v-1.001l0.428-0.993L177.977,106.329z M177.261,153.458
	c0,0.665,0.249,1.001,0.716,1.001v-1.001H177.261z M177.261,162.711c0.29,0.665,0.428,1.187,0.428,1.567h0.288v-1.567H177.261z
	 M177.688,69.327c0.485,1.998,0.994,2.999,1.567,2.999l-0.428-2.999H177.688z M177.688,79.584c0.208,0.657,0.288,1.18,0.288,1.559
	c-0.18,0.576-0.288,1.052-0.288,1.427c0.485,0,0.994-1.132,1.567-3.42h-0.851L177.688,79.584z M177.688,92.24h0.717v-0.99
	C177.937,91.441,177.688,91.773,177.688,92.24z M177.688,160.864v0.426h1.14v-0.426H177.688z M177.688,176.946v0.417
	c0,0.675,0.821,1.2,2.421,1.58v-0.576C179.825,177.424,179.039,176.946,177.688,176.946z M177.688,200.157v0.984h1.995
	c0-0.659-0.285-0.984-0.855-0.984H177.688z M177.977,123.423v0.854h0.429v-0.854H177.977z M177.977,158.442v0.417h0.852v-0.417
	H177.977z M178.405,72.881v1.004h0.423v-1.004H178.405z M178.405,156.444v1.003h0.851
	C179.256,156.782,178.971,156.444,178.405,156.444z M178.405,193.883v1.001h0.851v-1.001H178.405z M178.828,66.051v0.576
	c0.102,0.566,0.386,0.856,0.855,0.856v-1.432H178.828z M178.828,85.987v1.849c0.496-0.281,0.997-0.427,1.571-0.427v-0.995
	C179.825,86.413,179.324,86.265,178.828,85.987z M178.828,90.823c0.102,0.665,0.386,0.993,0.855,0.993v-0.993H178.828z
	 M179.684,95.659v2.001h0.716v-0.572c-0.181-0.655-0.29-1.144-0.29-1.429H179.684z M179.684,123.851v1.421h0.426
	c0-0.289,0.109-0.756,0.29-1.421H179.684z M179.684,180.223v0.992h0.716C180.399,180.552,180.171,180.223,179.684,180.223z
	 M179.684,186.624v0.995c0,0.764,0.142,1.387,0.426,1.855c-0.284,0.666-0.426,1.144-0.426,1.421h0.716
	c0-0.658,0.286-1.004,0.854-1.004v-1.268C181.253,188.143,180.744,187.48,179.684,186.624z M180.109,183.211v0.426h0.706v-0.426
	H180.109z M180.109,194.457v0.427c0.487,0,0.706-0.336,0.706-1.001v-0.427C180.358,193.554,180.109,193.883,180.109,194.457z
	 M180.399,103.063v0.427h0.854v-0.427H180.399z M180.815,131.258l-0.416,1.838c0.559,0,0.854-0.462,0.854-1.417v-0.421H180.815z
	 M180.815,63.639v0.418h0.861v-0.418H180.815z M180.815,89.402v0.417h1.282v-0.99C181.532,89.222,181.114,89.402,180.815,89.402z
	 M181.677,184.631v0.994h0.421v-0.994H181.677z M182.397,85.559h0.418c0.565,0,0.871-0.326,0.871-1h-0.448
	C182.674,84.657,182.397,84.986,182.397,85.559z M182.397,93.812l0.841,0.427l1.282-1.998h-0.834
	C183.307,92.24,182.878,92.771,182.397,93.812z M183.686,88.401l-0.871,1.417v1.004c1.142-0.468,1.705-0.943,1.705-1.421
	C184.52,88.747,184.242,88.401,183.686,88.401z M182.814,96.093c0.105,0.666,0.382,0.995,0.871,0.995v-0.995H182.814z
	 M183.237,104.492c0,0.379,0.448,0.855,1.282,1.431v-1.431H183.237z M183.686,70.898c0.087,0.665,0.372,0.994,0.834,0.994h0.289
	v-0.994H183.686z M183.686,119.007v1.004c0.27,0,0.664,0.18,1.123,0.562v-1.566H183.686z M184.809,186.624l-0.289,0.995h1.144
	C185.663,186.96,185.381,186.624,184.809,186.624z M185.663,179.794l0.421,1.001c0,0.561-0.276,0.849-0.85,0.849l-0.426-0.849
	C184.906,180.123,185.204,179.794,185.663,179.794z M184.809,190.895v1h0.855C185.663,191.231,185.381,190.895,184.809,190.895z
	 M184.809,212.816h0.855v1.004C185.096,213.82,184.809,213.486,184.809,212.816z M185.234,189.891v0.578h0.85v-0.578H185.234z
	 M186.084,200.157h1.135c0,0.655-0.209,0.984-0.694,0.984L186.084,200.157z M186.524,130.254h0.694v1.425h-0.694V130.254z
	 M186.524,170.104c0.485,0.102,0.694,0.387,0.694,0.856v0.576h-0.694V170.104z M186.524,182.633h0.694v1.003h-0.694V182.633z
	 M186.952,166.123h0.715v0.569h-0.715V166.123z M187.667,186.201l0.417,0.99v0.428h-0.417c-0.479,0-0.715-0.319-0.715-0.995
	L187.667,186.201z M186.952,198.292h0.715v0.434c0,0.658-0.236,0.992-0.715,0.992V198.292z M187.219,140.93h0.865v1.853h-0.865
	V140.93z"/>
</svg>
